<svg id="Layer_1" data-name="Layer 1" xmlns="http://www.w3.org/2000/svg" viewBox="0 0 336.36 336.37"><defs><style>.cls-1,.cls-2{fill:#6a37ff;}.cls-1,.cls-3{stroke:#000;stroke-miterlimit:10;}.cls-3{fill:none;}</style></defs><title>pet-family-magical</title><path class="cls-1" d="M336.36 168.18a168.19 168.19 0 0 0-168.18 168.19A168.19 168.19 0 0 0 0 168.18 168.18 168.18 0 0 0 168.18 0a168.18 168.18 0 0 0 168.18 168.18z"/><path class="cls-2" d="M129.87 85.41s.92 9.63-16 26.59-27.75 17.18-27.75 17.18l-16-59.79z"/><path class="cls-3" d="M70.12 69.39l59.79 16s.92 9.63-16 26.59-27.79 17.2-27.79 17.2z"/><path class="cls-2" d="M254.41 129.74s-9.51 1.76-27.89-13.65-19.53-26.14-19.53-26.14l58.13-21.17z"/><path class="cls-3" d="M265.12 68.78l-10.75 61s-9.51 1.76-27.89-13.65-19.49-26.18-19.49-26.18z"/><path class="cls-2" d="M205.36 249.66s-.92-9.63 16-26.59 27.76-17.22 27.76-17.22l16 59.79z"/><path class="cls-3" d="M265.12 265.68l-59.79-16s-.92-9.63 16-26.59 27.79-17.24 27.79-17.24z"/><path class="cls-2" d="M86.12 205.85s9.63-.92 26.59 16 17.18 27.74 17.18 27.74l-59.77 16.1z"/><path class="cls-3" d="M70.12 265.69l16-59.84s9.63-.92 26.59 16 17.18 27.74 17.18 27.74z"/></svg>