<svg id="Layer_1" xmlns="http://www.w3.org/2000/svg" xmlns:xlink="http://www.w3.org/1999/xlink" viewBox="0 0 114.1 157"><style>.st0{clip-path:url(#SVGID_2_);} .st1{fill:#FFFFFF;}</style><defs><path id="SVGID_1_" d="M1.6 0h112.5l-1.6 157H0z"/></defs><clipPath id="SVGID_2_"><use xlink:href="#SVGID_1_" overflow="visible"/></clipPath><g class="st0"><path class="st1" d="M170 194H-54.9V-30.8H170V194zM58.4 12c-1.1.5-1.5.6-1.7.8C39.3 34.9 23.1 57.6 12.9 84c-3.2 8.2-5 16.6-3.7 25.5 4.1 28.4 31.2 47.5 58.6 41.2 28.6-6.6 45.3-34.8 35.4-62.5-5.1-14.3-12.6-27.9-20.4-41C75.5 34.8 66.5 23.6 58.4 12z"/><path d="M58.4 12c8.1 11.6 17.1 22.8 24.4 35.1 7.8 13.1 15.3 26.7 20.4 41 9.9 27.8-6.7 56-35.4 62.5-27.4 6.3-54.5-12.8-58.6-41.2-1.3-8.8.5-17.3 3.7-25.5 10.2-26.4 26.5-49.2 43.9-71.2.1-.1.5-.1 1.6-.7zM41.2 134.7c.2-.5.4-.6.4-.7-.4-1.4-.8-2.9-1.2-4.3-3.8-13-5.7-26.1-2.4-39.4 2.5-10 5.2-20 8-29.9 2-7.2 4.2-14.2 6.3-21.4-4.9 6.3-9.1 12.9-12.6 19.8-5.9 11.5-12.6 22.8-16.8 35-5.3 15.2 3.7 33.6 18.3 40.9z"/><path class="st1" d="M41.2 134.7c-14.6-7.3-23.7-25.8-18.4-41 4.2-12.1 10.9-23.5 16.8-35 3.5-6.9 7.8-13.5 12.6-19.8-2 7.2-4.2 14.3-6.2 21.4-2.7 9.9-5.5 19.9-8 29.9-3.3 13.4-1.4 26.5 2.4 39.4.4 1.4.8 2.9 1.2 4.3 0 .2-.1.4-.4.8z"/></g></svg>