<svg id="Layer_1" xmlns="http://www.w3.org/2000/svg" viewBox="0 0 312.7 308.7"><style>.st0{fill:#FFFFFF;}</style><path class="st0" d="M-214.6-226h724.1v724.1h-724.1V-226zm375.3 519c-9.8-2.8-13.5-16.7-8.1-23.3 4.2-5.1 8.5-10.2 11.8-15.8 1.4-2.5 1.1-6.9-.1-9.6-.6-1.3-5.1-1.4-7.8-1.3-4.5.1-9 .8-13.5 1.3-.1-.7-.1-1.4-.2-2.1 2.1-1.4 4.4-2.7 6.4-4.3 15.9-13.1 28.6-27.9 28.2-50.2-.1-5.4 1.5-10.9 3.2-16.1 1.2-3.8 3.6-7.1 5.5-10.6 3.8-7 3.6-13.9-.6-20.8-1.1-1.8-2.3-4.7-1.6-6.3 5.2-12.3 10.8-24.6 16.7-36.6.7-1.3 4.1-1.4 6.2-2 .5 1.9 2.1 4.3 1.4 5.7-3 6.4-6.3 12.6-10 18.6-3.3 5.5-3.3 12.3 2.9 18.9 2.4 2.6 8.6 3.1 12.6 2.3 3.5-.7 6.3-4.7 9.7-7.5-2.6-1.6-3.9-2.4-6.1-3.7 5.9-2.2 10.9-3.6 15.4-5.9 5.4-2.8 7-7.6 5.8-12.1-2.9.3-5.7.9-8.4.8-.5 0-1-2.3-1.5-3.5 2.4-1 4.8-2.1 7.3-2.8 6.4-1.8 9.4-6.6 8.3-14.3-5.9 4-8.2-.4-10.1-4.7-1.4-3.2-2.3-6.7-3.1-10.1-2.7-11.8-4.7-12.5-14.7-5.7-1.9 1.3-5.3 2.4-6.9 1.6-6.4-3.4-12.4-7.7-18.9-11.8 8.1-4.7 14.7-8.7 21.5-12.4 1.3-.7 3.4-1.2 4.5-.6 8.7 5.3 17.8 9 23.8 18.9 5.8 9.7 8.3 18.3 7.4 29.8-1.2 14.1-5.3 26.2-15.1 36.2-5 5-10.6 9.3-15.9 14-7.7 6.9-15.5 13.7-22.9 20.9-2.2 2.1-3.2 5.5-4.8 8.2.6.4 1.1.8 1.7 1.2 3.7-2.6 7.5-5.2 11.2-7.8l1.8 1.8c-1.6 3-2.9 6.2-4.8 8.9-9.7 13.9-19.5 27.7-29.2 41.7-1.3 1.9-1.7 4.5-2.5 6.8.7.2 1.3.4 2 .6 2.2-1.8 4.5-3.6 7.3-5.8-10.3 31.4-5.1 53.9 13.4 58.1-1.5-5.4-3-10.6-4.4-15.7.7-.7 1.4-1.4 2.1-2 9.6 7.6 17.9 18 31.6 16.8 12.2-1.1 23.6-4.5 33.8-10.9-.2-.6-.4-1.2-.7-1.8-3.6-.2-7.2-.5-10.8-.7-.2-.6-.4-1.1-.6-1.7 2.5-1.8 4.8-4.2 7.6-5.4 5.3-2.3 6.6-6.5 7.8-11.6 1.2-4.7 3.5-9.4 6.3-13.4 3.4-5 7.9-9.3 11.8-14-.4-.4-.8-.8-1.2-1.3-2.1.3-4.2.5-6.9.9.1-3.1-.5-6.1.5-8.1 4.1-8.1 8.2-16.3 13.2-23.9 2.8-4.3 4-7.6.9-12-1.8 3.2-3.5 6.3-5.5 9.9-4.1-7.3-1.9-18.1 3.7-23.6 3.9-3.8 6.9-3.2 9.3 1.7 3 6.2 2.7 12.5-.4 18.3-3.1 5.8-7 11.1-10.2 16.9-1.2 2.1-1.2 4.9-1.8 7.4 17.9-11 27.7-25.6 25.5-46.4-.3-2.3 1-4.8 1.6-7.2 2.3 1 4.7 2 7 3 3.2-8.4.8-13.8-7.6-15.4-4.3-.8-8.9.1-13.3 0-1.4-.1-3.7-.8-4-1.8-.4-1.2.6-3.1 1.5-4.3 1.7-2.3 3.9-4.2 5.8-6.3-.5-.8-.9-1.6-1.4-2.4-3.6 1.4-7.8 2-10.8 4.2-10.2 7.7-15 19-19 30.7-.9 2.7-2.4 5.1-3.6 7.7-.7-.1-1.5-.1-2.2-.2-.9-3.9-1.8-7.8-2.8-12.4-7.5 6.3-7.6 14.3-6.3 22.6 1.3 8.6 3.3 17.1 4 25.7.2 2.8-2.6 5.8-4 8.7-1.8-2-3.7-4.1-5.5-6.1-.4-.5-.7-1.2-1.1-1.7-.6 0-1.3-.1-1.9-.1-.3 5.4-1.3 10.9-.8 16.3 1 10.1.6 19.9-7.6 26.6-3.1 2.5-9.1 2.8-13.5 2-2.8-.5-7.1-4.5-7.2-7.1-.7-16.1 1-32.1 9.5-46.3 1.8-3 5-6 8.2-7 6.7-1.9 9.6-6.3 11.3-12.3 1.2-4.3 2.1-8.7 3.3-13 1.9-6.6 5.2-12.4 12-14.7 4.6-1.6 6.6-4.6 7.7-9 1-4.3 2.5-8.6 4-12.8.8-2.2 2.4-4.1 4.6-7.7 2 4.7 3.2 7.7 4.7 11.1 7.4-10.8 8.5-22.3 7-34.2-1.2-9.3-2.9-18.6-4-27.9-.2-1.8.5-4.5 1.8-5.3 1.1-.7 3.8.4 5.3 1.4 2.7 1.7 5 4 8.3 6.7 1.2-14.3-7-27.7-19.7-34.2-5.9-3-12-5.4-17.7-8.8-2.6-1.5-4.2-4.6-7.4-8.4h12.6c.4-.5.7-1.1 1.1-1.6-2.3-1.9-4.3-4.3-6.8-5.6-22.2-11.3-43.9-10-65.2 2.5-5 2.9-10.2 5.9-15.6 7.6-4.4 1.4-7.5-.4-5.5-6.1.9-2.5 1-5.2 1.5-7.8-11 8.4-17 19.5-18.2 32.4-1.3 13.8-.8 27.8-1.7 41.6-.4 6.5-2.2 12.9-4 19.2-.6 2.1-3.2 4.6-5.2 4.9-1.4.2-3.4-2.9-5.1-4.6-.8-.9-1.6-1.9-2.8-3.4-4 10.3-1.6 19.8-.4 29.3 1.3 10.5 3.2 21-.8 31.4-4.5 11.5-6.6 12.1-15.9 4.5-.2-.2-.9.1-2.9.3.9 6.6 1.8 13.1 2.6 19.7.8 6.5 2.4 13.1 1.6 19.5-.4 3-5.7 7.8-8.3 7.5-4.3-.6-8.8-3.9-11.8-7.4-1.2-1.5 1.3-6.2 2.5-10.6 2.9 3.5 4.4 5.3 5.9 7.1.7-.2 1.3-.4 2-.6v-16.7c0-7.5-.3-15.1.4-22.5.3-3.4 2.7-6.6 4.2-9.9 3 2.3 6 4.6 9 6.8.5.4 1.2.5 3.7 1.6 0-8.4.1-15.7 0-23.1-.1-8.7-.9-17.4-.6-26.1.3-7.6 1.6-15.2 7.7-21.9 2.4 3.3 4.3 6 6.4 8.9 5.1-6.2 6.9-12.8 4.5-19.7-3.3-9.3-7.5-18.2-11.1-27.4-4.9-12.6-3.1-16.1 10.4-19.9-2.4-1.9-4.2-3.6-6.3-4.9-10.1-6.3-21.2-5.8-32.2-4.1-11.1 1.7-12.4 1.2-14.7-9.6-2 .3-4.6-.1-5.9 1.1-7.6 6.7-14.8 14-21.7 20.7 3.5-23.4-2.4-30.8-15.7-32.1 3.9 11.9 7.7 23.7-1 35.5-.7-2.6-1.4-5.3-2.2-8.5-9.2 11.3-3.8 26.4-10.7 38.4-2.1-2.5-3.6-4.3-5.7-6.8-1.1 2.8-2.2 4.9-2.7 7.1-4.8 18.3-5.8 36.7-2.3 55.3 1.2 6.3 2.1 11.8-5.3 15.2-1.2.5-2 5.3-1 6.7 5.3 7.5 12.5 12.7 21.7 14.7 1.8.4 3.9-.7 6.6-1.2-1.6-2.2-2.4-3.4-3.2-4.5-6.3-8.2-6.2-8.1 1.3-15.9.9-1 1.8-3 1.5-4.1-2.7-7.3.9-12.3 5.8-16.8 2.7-2.5 5.8-4.7 8.8-7.1-6.7-5.3-8.5-9.4-5.2-12.5 2.3-2.2 7.1-4.3 9.6-3.3 6.2 2.5 3.7 7.9 1.3 11.9-4.6 7.7-9.8 15.1-15.1 23.2 1.6 2.6 10.4 1.7 6.9 8.5-1.9 3.7-6.6 6-10.1 9 9.6 4.9 21.6-.3 27.7-12-5.8-4.6-6.2-5.5-3.2-12.9 1.7-4.4 4.1-8.5 6.2-12.6 8.9-17.1 8.3-20.3-6.4-32.9-.3-.2-.2-.8-.4-1.7 2.5-1.5 5.1-3 7.7-4.5 9.3-5.2 9.4-5.1 13.5 4.9.6 1.5 2 2.8 2.3 4.3.5 2 .9 4.3.4 6.2-2.4 9.5-5.6 18.8-7.4 28.4-1.7 8.8-2 17.8-10.5 23.6-1.7 1.1-2 4.5-2.5 6.9-1.2 5.9-.8 12.7-3.6 17.7-7.1 12.9-15.6 24.9-23.6 37.4-5.4-1-6.1-4.6-4.2-8.9 1.7-3.9 4.4-7.3 6-11.2.7-1.7.5-4.4-.5-5.9-1.5-2.1-4.7-3-5.9-5.2-4.2-7.2-11.4-7.1-17.9-7.3-3.7-.1-11-2.4-9.9 6.5 0 .3-1 .9-1.7 1.2C2.3 172.5-.2 179.8.3 187c.6 10.9 2.9 21.7 4.9 32.5.4 2.1 2.6 3.9 4.4 6.4 2.6-4.7 4.2-8.6 6.6-12 3.1-4.5 7.6-4.1 9.9.9 1.3 2.7 2.1 5.9 2 8.8-.3 6.3-1.6 12.6-1.8 18.9-.1 2.4.8 6.1 2.5 7.1 1.6 1 5.2-.3 7.3-1.6 2.8-1.8 5-4.5 8.7-8 2.2 14.3 9.2 23.4 20.8 28.9 10.4 4.9 19.6 14.8 33.1 6.5-2.7 18.9.7 25.1 11.8 23.8-1.6-11.4-1.6-11.4 4.8-10.8-.8 2.9-1.6 5.7-2.7 9.4 7.3 1.6 11.2 11.3 20.8 7.3-7.6-12.9-7.6-13.7-.8-16.2.4 3.1.7 6 1.1 9.3 9.5 3.1 17.8.9 27-5.2z"/><path d="M160.7 293c-9.2 6.1-17.5 8.3-27.1 5.6-.4-3.3-.7-6.2-1.1-9.3-6.8 2.5-6.8 3.3.8 16.2-9.6 3.9-13.4-5.7-20.8-7.3 1.1-3.7 1.9-6.5 2.7-9.4-6.4-.6-6.4-.6-4.8 10.8-11.2 1.3-14.5-4.9-11.8-23.8-13.5 8.3-22.7-1.6-33.1-6.5-11.6-5.5-18.6-14.7-20.8-28.9-3.7 3.5-5.9 6.2-8.7 8-2.1 1.3-5.7 2.5-7.3 1.6-1.7-1-2.6-4.7-2.5-7.1.3-6.3 1.6-12.6 1.8-18.9.1-2.9-.7-6.1-2-8.8-2.3-5-6.7-5.4-9.9-.9-2.4 3.4-4.1 7.3-6.6 12-1.8-2.5-4-4.3-4.4-6.4-2-10.8-4.3-21.6-4.9-32.5-.4-7.3 2-14.6 10.2-17.7.6-.2 1.7-.9 1.7-1.2-1.2-8.8 6.2-6.5 9.9-6.5 6.5.1 13.7.1 17.9 7.3 1.3 2.1 4.5 3.1 5.9 5.2 1 1.4 1.2 4.2.5 5.9-1.6 3.9-4.3 7.3-6 11.2-1.9 4.3-1.2 7.9 4.2 8.9 8-12.5 16.5-24.6 23.6-37.4 2.8-5 2.3-11.8 3.6-17.7.5-2.4.9-5.8 2.5-6.9 8.5-5.9 8.8-14.8 10.5-23.6 1.9-9.6 5.1-18.9 7.4-28.4.5-1.9.1-4.2-.4-6.2-.4-1.5-1.7-2.8-2.3-4.3-4.1-10-4.1-10.1-13.5-4.9-2.6 1.5-5.2 3-7.7 4.5.2.9.1 1.5.4 1.7 14.7 12.6 15.3 15.8 6.4 32.9-2.2 4.2-4.5 8.3-6.2 12.6-2.9 7.3-2.6 8.2 3.2 12.9-6.1 11.6-18 16.8-27.7 12 3.5-3 8.1-5.3 10.1-9 3.5-6.8-5.3-5.9-6.9-8.5 5.3-8.1 10.5-15.5 15.1-23.2 2.4-4 4.9-9.4-1.3-11.9-2.4-1-7.3 1.1-9.6 3.3-3.3 3.1-1.5 7.2 5.2 12.5-3.1 2.4-6.1 4.6-8.8 7.1-4.9 4.5-8.6 9.5-5.8 16.8.4 1.1-.5 3.1-1.5 4.1-7.5 7.7-7.6 7.7-1.3 15.9.8 1.1 1.6 2.3 3.2 4.5-2.7.5-4.8 1.6-6.6 1.2-9.2-1.9-16.4-7.1-21.7-14.7-1-1.4-.2-6.1 1-6.7 7.4-3.4 6.5-8.9 5.3-15.2-3.6-18.6-2.5-37 2.3-55.3.6-2.2 1.6-4.3 2.7-7.1 2.1 2.5 3.6 4.2 5.7 6.8 6.9-12 1.5-27.1 10.7-38.4.8 3.2 1.5 5.8 2.2 8.5 8.7-11.9 4.9-23.7 1-35.5C58.6 4.1 64.5 11.5 61 35c6.9-6.7 14-14 21.5-20.9 1.3-1.2 3.9-.8 5.9-1.1 2.3 10.8 3.6 11.3 14.7 9.6 11-1.7 22.1-2.2 32.2 4.1 2.1 1.3 3.9 3 6.3 4.9-13.5 3.8-15.3 7.3-10.4 19.9 3.6 9.2 7.9 18.1 11.1 27.4 2.4 6.9.6 13.4-4.5 19.7-2.1-2.9-4-5.6-6.4-8.9-6.2 6.7-7.5 14.3-7.7 21.9-.3 8.7.4 17.4.6 26.1.1 7.4 0 14.8 0 23.1-2.5-1.1-3.2-1.2-3.7-1.6-3-2.3-6-4.6-9-6.8-1.5 3.3-3.8 6.5-4.2 9.9-.7 7.5-.3 15-.4 22.5v16.7c-.7.2-1.3.4-2 .6-1.5-1.8-2.9-3.5-5.9-7.1-1.1 4.4-3.7 9.1-2.5 10.6 2.9 3.5 7.5 6.8 11.8 7.4 2.5.3 7.9-4.5 8.3-7.5.8-6.3-.9-13-1.6-19.5-.8-6.6-1.7-13.2-2.6-19.7 2.1-.2 2.7-.5 2.9-.3 9.3 7.6 11.4 7 15.9-4.5 4-10.4 2.1-20.8.8-31.4-1.2-9.4-3.6-18.9.4-29.3 1.2 1.5 1.9 2.5 2.8 3.4 1.7 1.7 3.6 4.9 5.1 4.6 2-.3 4.6-2.8 5.2-4.9 1.9-6.3 3.6-12.7 4-19.2 1-13.8.4-27.8 1.7-41.6 1.3-12.9 7.3-24 18.2-32.4-.5 2.6-.6 5.3-1.5 7.8-2 5.7 1.2 7.5 5.5 6.1 5.5-1.8 10.6-4.7 15.6-7.6 21.3-12.4 43.1-13.8 65.2-2.5 2.6 1.3 4.6 3.7 6.8 5.6-.4.5-.7 1.1-1.1 1.6h-12.6c3.2 3.8 4.9 6.9 7.4 8.4 5.6 3.3 11.8 5.8 17.7 8.8 12.7 6.4 20.9 19.9 19.7 34.2-3.3-2.7-5.6-4.9-8.3-6.7-1.5-1-4.2-2.1-5.3-1.4-1.2.8-2 3.5-1.8 5.3 1.2 9.3 2.9 18.6 4 27.9 1.5 11.9.4 23.4-7 34.2-1.4-3.4-2.7-6.3-4.7-11.1-2.2 3.6-3.8 5.5-4.6 7.7-1.6 4.2-3 8.4-4 12.8-1.1 4.4-3 7.4-7.7 9-6.8 2.3-10.1 8.2-12 14.7-1.3 4.3-2.1 8.7-3.3 13-1.7 5.9-4.6 10.4-11.3 12.3-3.2.9-6.5 4-8.2 7-8.5 14.3-10.2 30.2-9.5 46.3.1 2.6 4.4 6.7 7.2 7.1 4.4.7 10.4.5 13.5-2 8.2-6.7 8.6-16.5 7.6-26.6-.5-5.3.5-10.8.8-16.3.6 0 1.3.1 1.9.1.4.6.6 1.2 1.1 1.7 1.8 2.1 3.7 4.1 5.5 6.1 1.4-2.9 4.2-6 4-8.7-.7-8.6-2.7-17.1-4-25.7-1.2-8.3-1.2-16.3 6.3-22.6 1 4.6 1.9 8.5 2.8 12.4.7.1 1.5.1 2.2.2 1.2-2.6 2.7-5 3.6-7.7 4.1-11.7 8.8-23 19-30.7 3-2.2 7.1-2.8 10.8-4.2.5.8.9 1.6 1.4 2.4-2 2.1-4.1 4-5.8 6.3-.9 1.2-1.9 3.1-1.5 4.3.3.9 2.6 1.7 4 1.8 4.4.2 9-.8 13.3 0 8.4 1.5 10.8 7 7.6 15.4-2.3-1-4.7-2-7-3-.6 2.4-1.9 4.9-1.6 7.2 2.2 20.8-7.5 35.4-25.5 46.4.6-2.5.6-5.2 1.8-7.4 3.2-5.8 7.2-11.1 10.2-16.9 3.1-5.9 3.4-12.1.4-18.3-2.3-4.9-5.3-5.6-9.3-1.7-5.7 5.5-7.8 16.3-3.7 23.6 2-3.6 3.7-6.6 5.5-9.9 3.1 4.4 1.9 7.7-.9 12-5 7.5-9.2 15.7-13.2 23.9-1 2.1-.4 5-.5 8.1 2.8-.3 4.8-.6 6.9-.9.4.4.8.8 1.2 1.3-4 4.6-8.4 9-11.8 14-2.8 4-5.1 8.7-6.3 13.4-1.3 5-2.6 9.3-7.8 11.6-2.8 1.2-5.1 3.6-7.6 5.4.2.6.4 1.1.6 1.7 3.6.2 7.2.5 10.8.7.2.6.4 1.2.7 1.8-10.2 6.4-21.6 9.8-33.8 10.9-13.7 1.2-22-9.1-31.6-16.8-.7.7-1.4 1.4-2.1 2 1.5 5.1 2.9 10.3 4.4 15.7-18.5-4.2-23.6-26.7-13.4-58.1-2.8 2.3-5.1 4.1-7.3 5.8-.7-.2-1.3-.4-2-.6.8-2.3 1.2-4.9 2.5-6.8 9.6-14 19.5-27.7 29.2-41.7 1.9-2.8 3.2-5.9 4.8-8.9l-1.8-1.8c-3.7 2.6-7.5 5.2-11.2 7.8-.6-.4-1.1-.8-1.7-1.2 1.6-2.8 2.6-6.1 4.8-8.2 7.4-7.2 15.2-14 22.9-20.9 5.3-4.7 10.9-9 15.9-14 9.9-10 13.9-22 15.1-36.2 1-11.4-1.5-20-7.4-29.8-5.9-9.9-15.1-13.6-23.8-18.9-1-.6-3.2-.1-4.5.6-6.7 3.7-13.4 7.7-21.5 12.4 6.5 4.2 12.5 8.4 18.9 11.8 1.6.9 5-.3 6.9-1.6 9.9-6.9 12-6.1 14.7 5.7.8 3.4 1.7 6.9 3.1 10.1 1.9 4.2 4.1 8.6 10.1 4.7 1.2 7.7-1.9 12.5-8.3 14.3-2.5.7-4.9 1.9-7.3 2.8.5 1.2 1 3.5 1.5 3.5 2.8 0 5.5-.5 8.4-.8 1.2 4.5-.5 9.3-5.8 12.1-4.5 2.4-9.5 3.7-15.4 5.9 2.1 1.3 3.5 2.1 6.1 3.7-3.4 2.8-6.2 6.8-9.7 7.5-4 .8-10.1.3-12.6-2.3-6.2-6.6-6.2-13.5-2.9-18.9 3.6-6 7-12.3 10-18.6.6-1.4-.9-3.8-1.4-5.7-2.1.6-5.5.6-6.2 2-5.9 12-11.4 24.3-16.7 36.6-.7 1.6.5 4.5 1.6 6.3 4.2 6.9 4.4 13.7.6 20.8-1.9 3.5-4.3 6.9-5.5 10.6-1.6 5.2-3.2 10.8-3.2 16.1.3 22.4-12.3 37.2-28.2 50.2-2 1.6-4.3 2.9-6.4 4.3.1.7.1 1.4.2 2.1 4.5-.5 9-1.2 13.5-1.3 2.7-.1 7.2 0 7.8 1.3 1.2 2.8 1.5 7.1.1 9.6-3.2 5.7-7.6 10.8-11.8 15.8-5.1 5.9-1.4 19.9 8.4 22.7z"/></svg>