<svg id="Layer_1_xA0_Image_1_" xmlns="http://www.w3.org/2000/svg" viewBox="0 0 120 120"><style>.st0{fill:#FFFFFF;}</style><path class="st0" d="M108.8 111H13V11.1h95.8V111zM60.9 14.7c-5.3 25.6-21.3 39.8-45.8 46.4 25.3 5.8 40.1 21.2 45.9 46.2 5.5-25.6 21.1-40.2 45.8-46.6C82 54.6 66.7 40 60.9 14.7zM45.2 84.9C41.1 81 37.7 77.8 33.8 74c-1.7 5.5-3.1 9.8-4.4 13.9 4.8-.9 9.5-1.8 15.8-3zm46.9 2.7c-1.4-4.6-2.6-8.5-4.2-13.8L76.7 85c6.1 1.1 10.4 1.8 15.4 2.6zM76.8 37c4.1 3.8 7.6 6.9 11.3 10.3 1.7-5.6 2.9-9.7 4.2-13.9-4.8 1.1-9.4 2.2-15.5 3.6zm-43.3 9.7c4.4-2.6 8.3-5.2 10.1-10-5.1-1.1-9.4-2.1-14-3.2 1.3 4.4 2.5 8.5 3.9 13.2z"/><path d="M60.9 14.7c5.7 25.3 21 39.9 45.9 46.1-24.6 6.3-40.3 21-45.8 46.6-5.8-25-20.6-40.4-45.9-46.2 24.5-6.7 40.5-20.9 45.8-46.5z"/><path d="M45.2 84.9C38.9 86.1 34.3 87 29.5 88c1.3-4.2 2.6-8.4 4.4-13.9 3.8 3.7 7.2 6.9 11.3 10.8zM92.1 87.6c-5-.9-9.3-1.6-15.4-2.6l11.2-11.2c1.6 5.3 2.9 9.3 4.2 13.8zM76.8 37c6.2-1.4 10.7-2.5 15.5-3.6-1.3 4.2-2.5 8.4-4.2 13.9-3.8-3.4-7.2-6.5-11.3-10.3zM33.5 46.7c-1.4-4.7-2.6-8.8-4-13.1 4.6 1 9 2 14 3.2-1.7 4.6-5.6 7.3-10 9.9z"/></svg>