<svg id="Layer_1_xA0_Image_1_" xmlns="http://www.w3.org/2000/svg" viewBox="0 0 120 120"><style>.st0{fill:#FFFFFF;}</style><path d="M53 16h20c1.7.5 3.5 1.3 5.2 1.3 4.5.1 8.1.9 9.1 6.3 2.6 13.2 5.4 26.3 8.1 39.5 1.7 8.5.8 16.2-5.4 23.1-7 7.8-13.6 16.2-20.5 24.4l-1.5-.9c-.5-15-1.2-30.1-1.5-45.1 0-1.1 1.6-2.7 2.8-3.3 4.5-2 9.1-3.7 14.1-5.7-.9-3.2-1.7-5.9-2.5-8.8-13.8 4-26.9 3.8-39.9.2-2.9 7.3-2.8 7.4 3.6 10.3 2.5 1.2 5 2.6 7.7 3.4 3.1.9 3.7 2.8 3.4 5.6-.4 3.8-.5 7.6-.6 11.4-.3 10.7-.5 21.4-.8 32.1-.6.3-1.1.6-1.7.8-6.7-7.9-13.5-15.7-20.2-23.6-5.6-6.5-8-13.7-5.9-22.5 3.2-13.2 5.7-26.5 8.4-39.8.8-4 2.9-5.9 7.1-6.3 3.8-.4 7.4-1.6 11-2.4z"/><path class="st0" d="M53 16c-3.6.8-7.2 2-10.9 2.4-4.1.4-6.3 2.3-7.1 6.3-2.7 13.3-5.3 26.6-8.4 39.8-2.1 8.8.3 16 5.9 22.5 6.7 7.9 13.5 15.7 20.2 23.6.6-.3 1.1-.6 1.7-.8.3-10.7.5-21.4.8-32.1.1-3.8.2-7.6.6-11.4.3-2.9-.4-4.7-3.4-5.6-2.7-.8-5.1-2.3-7.7-3.4-6.4-3-6.5-3.1-3.6-10.3 13 3.6 26.1 3.8 39.9-.2.8 2.9 1.6 5.6 2.5 8.8-4.9 2-9.6 3.7-14.1 5.7-1.2.6-2.8 2.2-2.8 3.3.4 15 1 30.1 1.5 45.1l1.5.9C76.4 102.4 83 94 90.1 86.1c6.2-6.9 7.1-14.6 5.4-23.1-2.7-13.2-5.5-26.3-8.1-39.5-1-5.3-4.6-6.2-9.1-6.3-1.7 0-3.5-.9-5.2-1.3h24v96h-72v-96c9.2.1 18.6.1 27.9.1z"/></svg>