<svg id="Layer_1_xA0_Image_1_" xmlns="http://www.w3.org/2000/svg" viewBox="0 0 120 120"><style>.st0{fill:#FFFFFF;}</style><path d="M57 105h-2c-1.4-.3-2.8-.8-4.2-1-11.6-1.5-21.1-6.6-27.5-16.7-7.8-12.2-8.4-24.8-1.4-37.6 3.5-6.3 10.8-9.6 17.7-8.4 5.4 1 10.5 8 9.8 12.6-3.3 0-6.8-.8-9.5.3-2.4.9-4.3 3.8-5.6 6.2-.6 1.1.7 4.5 1.4 4.6 2.2.3 4.7-.2 6.7-1 5.6-2.4 11.3-3.4 18.4-2.3-3.2 2.9-8 3.2-6.5 8.2 4.4 1.2 7.2-1.2 9.9-4.1C69.8 60.1 75 54 81.3 49.2c7.7-6 19.4-7.2 23.7 4.8.1.4.7.7 1 1.1v4c-2.2 6.2-5.1 11.8-13.8 13 1.8-2.2 3.4-3.4 3.8-4.9.6-2.3 1.4-5.6.3-7.2-2.1-3.1-5.4-.8-6.6 1.2-2.5 4.3-5.1 9-5.9 13.8-1.9 12.3-5.7 23-18.5 27.7-2.6 1-5.5 1.6-8.3 2.3z"/><path class="st0" d="M106 55c-.3-.3-.9-.6-1-1.1-4.3-12-16-10.7-23.7-4.8-6.3 4.8-11.5 11-17.1 16.6-2.8 2.8-5.5 5.3-9.9 4.1-1.5-5.1 3.4-5.3 6.5-8.2-7.1-1.1-12.8-.1-18.4 2.3-2.1.9-4.5 1.3-6.7 1-.7-.1-2-3.5-1.4-4.6 1.3-2.4 3.2-5.3 5.6-6.2 2.7-1.1 6.2-.3 9.5-.3.7-4.7-4.4-11.7-9.8-12.6-6.9-1.2-14.3 2.1-17.7 8.4-7 12.8-6.4 25.4 1.4 37.6 6.4 10.1 15.9 15.2 27.5 16.7 1.4.2 2.8.7 4.2 1H16V21h90v34zM38.8 29.2c.2.2.5.5.7.5C52 31 52.3 31.3 54.3 44.1c.6 4.2 4.6 7.7 8.9 7.9 5.8.2 10.3-2.8 12.3-8.1 2.3-6.2.4-14-4.6-18-8.2-6.7-24.9-5-32.1 3.3z"/><path class="st0" d="M57 105c2.8-.7 5.7-1.3 8.4-2.3C78.2 97.9 82 87.3 83.9 75c.8-4.8 3.4-9.5 5.9-13.8 1.2-2 4.5-4.3 6.6-1.2 1.1 1.6.3 4.9-.3 7.2-.4 1.5-2.1 2.7-3.8 4.9 8.7-1.3 11.6-6.8 13.8-13v46c-16.4-.1-32.8-.1-49.1-.1z"/><path d="M38.8 29.2c7.3-8.2 23.9-9.9 32.1-3.3 4.9 4 6.9 11.8 4.6 18-2 5.3-6.5 8.3-12.3 8.1-4.3-.2-8.3-3.7-8.9-7.9-2-12.8-2.3-13.1-14.8-14.4-.3 0-.5-.3-.7-.5z"/></svg>