<svg id="Layer_1_xA0_Image_1_" xmlns="http://www.w3.org/2000/svg" viewBox="0 0 120 120"><style>.st0{fill:#FFFFFF;}</style><path d="M70 25h1c2.7 1.7 5.5 3.4 8.6 5.3.8-.4 2-1.2 3.4-1.8 5.4-2.5 14-1.7 17 1.5v4c-2.8 3.8-5.5 7.8-8.5 11.3-3.4 3.9-6.5 8.6-10.9 10.9-4 2.1-4.8 4.6-4.1 7.8.9 3.9 4.4 2.4 7.1 2.3 3-.2 6-.9 8.8-.2 1.5.3 2.5 2.9 3.8 4.4-1.7.8-3.4 2.2-5.2 2.4-3.8.3-7.7-.7-11.4 0-6.2 1.1-12 2.3-14.7-6-5.4 3.7-12.2 3.1-17.6 7.9 5.2 1.4 9.1 2 12.8 3.4 5.3 2 6.4 6.1 2.8 10.7C55 82.8 46.1 80 36 81.6c.3-3 .6-5.4.8-7.7-4.6-.9-8.5-1.7-12.8-2.6.3 6.1 2.1 10.8 6 14.5 5.3 5.1 11.9 7.1 19 7.7 5.9.5 11.1 2.4 17.4 6.8-4.9 2.4-8.4 4.9-12.3 6-10.3 2.8-23.5-3.1-30.1-14-3.8-6.3-6-13.6-8.9-20.4v-9c.5-1.4 1.1-2.7 1.4-4.2C20 42.5 36.3 30.5 53.4 38.6c4.8 2.3 10.2 2.1 15.4.3-3.3-7.1-3-10.1 1.2-13.9z"/><path class="st0" d="M15 72c2.9 6.8 5.1 14.1 8.9 20.4 6.7 11 19.9 16.8 30.1 14 3.9-1.1 7.5-3.6 12.3-6C60.1 96 54.9 94 49 93.6c-7-.6-13.7-2.7-19-7.8-3.9-3.7-5.7-8.4-6-14.5 4.4.9 8.2 1.7 12.8 2.6-.2 2.3-.5 4.7-.8 7.7 10-1.6 19 1.2 26.9 7.3 3.6-4.6 2.5-8.7-2.8-10.7-3.7-1.4-7.6-2.1-12.8-3.4 5.4-4.8 12.2-4.2 17.6-7.9 2.7 8.3 8.5 7.1 14.7 6 3.7-.7 7.6.3 11.4 0 1.8-.1 3.5-1.5 5.2-2.4-1.2-1.5-2.3-4.1-3.8-4.4-2.8-.6-5.9.1-8.8.2-2.7.2-6.2 1.6-7.1-2.3-.7-3.2.1-5.7 4.1-7.8 4.3-2.3 7.5-6.9 10.9-10.9 3.1-3.6 5.7-7.6 8.5-11.3v73.9H15V72zM70 25c-4.2 3.8-4.5 6.8-1.2 14.1-5.3 1.7-10.7 1.9-15.4-.3-17.1-8.1-33.4 3.9-36.9 20.1-.3 1.4-.9 2.8-1.4 4.2v-38C33.3 25 51.7 25 70 25zM100 30c-3-3.2-11.7-4-17-1.5-1.3.6-2.6 1.4-3.4 1.8-3.1-1.9-5.9-3.6-8.6-5.3h29v5z"/></svg>