<svg id="Layer_1_xA0_Image_1_" xmlns="http://www.w3.org/2000/svg" viewBox="0 0 120 120"><style>.st0{fill:#FFFFFF;}</style><path d="M54 12h2c-2.1 4.5.2 8.2 3.5 10.3 4.1 2.6 8.9 4.4 13.6 5.7 5.7 1.5 8.8 4.7 8.7 10.7 0 1.8-.9 3.8-.5 5.4.5 1.8 2.1 3.4 3.2 5 1.2-1.5 2.9-2.9 3.5-4.6.6-1.6.1-3.6.1-5.5h2.1c.2 4.1 1 8.3.3 12.3-.9 5-2.5 9.8-7.8 12.6-3.8 2-4.6 6.8-2.1 9.4 3 3.2 6.3 1.5 8.1-1 2.6-3.6 4.9-7.8 6.1-12.1 1.2-4.1.8-8.6 1.2-13 .4-.1.9-.2 1.3-.3l5.4 16.2v6c-.5 1.5-.9 3.1-1.4 4.6-1.8 5.8-2.5 12.2-5.5 17.3-8.1 14.2-21.3 20.6-37.4 20.2-16.2-.4-29.4-6.8-37.2-21.8-2-3.7-3.7-7.6-5.5-11.4V66c1.3-2.4 2.4-5 4.1-7.1 3.9-5.2 7.9-10.2 1.6-17.5 9 3.4 13.6 13 10.7 20.1-1.6 4-.1 8.3 4 9.1 2.6.5 6.1-.2 8.2-1.8 3.3-2.4 3.7-9.8.9-13.4-1.2-1.6-4-2.1-6.1-3-6.7-8.7-3.1-25.3 6.3-29.5 0 6.6 2.2 12.4 6.4 17.4.8.9 1.3 2.7.9 3.8-1.8 4.9-1.5 8.7 3.6 11.3 3.4 1.8 10.3 1.4 12.8-1.8 1.5-2 2.7-5.3 2.1-7.5-.5-1.7-3.9-2.7-6.1-3.8-1.7-.9-4-1.1-5.3-2.4C52.1 32 50.7 22.5 54 12z"/><path class="st0" d="M54 12c-3.3 10.5-1.9 20 6.1 28 1.3 1.3 3.6 1.5 5.3 2.4 2.2 1.1 5.6 2.1 6.1 3.8.6 2.2-.6 5.5-2.1 7.5-2.5 3.2-9.3 3.6-12.8 1.8-5.1-2.6-5.5-6.5-3.6-11.3.4-1-.2-2.8-.9-3.8-4.2-5.1-6.4-10.8-6.4-17.4-9.3 4.2-13 20.8-6.3 29.5 2.1 1 4.8 1.4 6.1 3 2.8 3.6 2.4 10.9-.9 13.4-2.1 1.5-5.6 2.3-8.2 1.8-4.2-.8-5.6-5.1-4-9.1 2.8-7.1-1.7-16.7-10.7-20.1 6.2 7.3 2.3 12.3-1.6 17.5-1.7 2-2.8 4.6-4.1 7V12h38z"/><path class="st0" d="M103 63l-5.4-16.2c-.4.1-.9.2-1.3.3-.3 4.3 0 8.9-1.2 13-1.2 4.3-3.5 8.5-6.1 12.1-1.8 2.5-5.1 4.1-8.1 1-2.5-2.6-1.7-7.3 2.1-9.4 5.2-2.8 6.9-7.6 7.8-12.6.7-3.9-.1-8.2-.3-12.3h-2.1c0 1.8.5 3.9-.1 5.5-.7 1.7-2.3 3.1-3.5 4.6-1.1-1.7-2.7-3.2-3.2-5-.5-1.6.4-3.6.5-5.4.1-6-3-9.1-8.7-10.7-4.7-1.3-9.5-3.1-13.6-5.7-3.4-2.1-5.6-5.8-3.5-10.3h47C103 29 103 46 103 63z"/><path class="st0" d="M16 78c1.8 3.8 3.6 7.6 5.5 11.4 7.9 15 21.1 21.4 37.2 21.8 16 .4 29.3-6 37.4-20.2 2.9-5.1 3.7-11.5 5.5-17.3.5-1.5.9-3.1 1.4-4.6v43H16V78z"/></svg>