<svg id="fill_xA0_Image_1_" xmlns="http://www.w3.org/2000/svg" viewBox="0 0 120 120"><style>.st0{fill:#FFFFFF;}</style><path class="st0" d="M107.8 109H12.1V17.1h95.7V109zM70.4 47.2c1.9-.2 3.5-.4 5.2-.4C84 46.4 87.8 51 85.2 59c-1.2 3.6-3.9 6.7-6.3 9.8-5.6 7.2-12 13.8-16.8 21.4-2.9 4.6-3.7 10.5-5.5 15.8.6.6 1.1 1.2 1.7 1.8 4.6-1.2 9.4-2.2 13.9-3.7 1.2-.4 2.3-2.2 2.6-3.6.9-3.8.8-8 2.3-11.5 1-2.2 4.3-3.4 6.5-5.1 1.2 1.7 2.9 3.3 3.6 5.2.8 2.4.8 5.1 1.2 8 .9-1 1.8-1.7 2.4-2.7 6.2-9.2 9.5-18.8 4.9-29.8-.6-1.5.6-3.7 1-5.6 1.9 1.2 4.3 2 5.5 3.7 1.4 2.1 1.8 5 2.6 7.5 5.7-13.2.8-26.6-11.2-30.7-2.1-.7-4-2.1-6-3.1 2.2-1.1 4.5-2.2 6.7-3.3.4-.2.8-.3 1.6-.6-8.3-6.5-17-5.8-25.6-2.8C64 31.9 58 35.1 55.1 42.4h17.1c-.8 1.8-1.2 3.2-1.8 4.8zM17.1 54c-6.7 6.2-4.9 12.8 4.2 18.2 2-.9 3.2-1.8 4.5-1.9 1.8-.1 3.7.5 5.9.8-1.7-5.3-1.7-5.3 7.5-6.7-1.2-4 .5-5.9 4.5-6.1 4.1-.2 6.6 1.9 6.6 5.6 0 4.8-3 7.8-7.1 7.9-1.2 2.3-1.8 4.8-3.4 5.8-.9.6-3.4-1.4-5.5-2.3-1.1 5.3-3.8 10.8.1 16.9 1.4-2.4 2.6-4.4 3.8-6.5 4.8 1.6 9.1 5.1 12.5 1.9-.4-2.8-1.1-4.6-.8-6.3.4-2.2 1.9-4.3 2.4-6.5 1.6-7.5 6-11.8 13.4-13.5 4.8-1.1 9.2-3.1 9.1-9.4-4.4-.9-11.4 3.6-11.3-6-2.6.1-5 0-7.2.4-5.6 1.1-11.4 1.5-16.1 5.7-2.2 2-6.1 2.6-7.8-.8-1.6-3.3.6-5.9 3.9-6.8 2.8-.8 5.9-.6 8.7-1.5 2.6-.8 6.5-2 7.2-4 2.3-6.6 6.6-10.4 12.7-13 .7-.3 1.2-1 3-2.4-5.8 1.5-10.2 2.7-15 3.9.2-2 .4-3.2.5-4.3-3.7 1.9-7.6 3.5-11 5.8-2.6 1.8-6.1 4.3-6.5 6.9-.7 4.3-2.9 6.3-6 8.3-2.2 1.4-4.4 3-1.7 6.3.8 1-.1 4.5-1.3 5.6-2 1.7-4.9 2.3-7.4 3.4-.8-1.7-1.6-3.4-2.4-5.4z"/><path d="M70.4 47.2c.6-1.6 1-3 1.6-4.8H54.9c2.9-7.3 8.9-10.5 15.2-12.7 8.6-3.1 17.4-3.7 25.6 2.8-.9.3-1.3.4-1.6.6-2.2 1.1-4.5 2.2-6.7 3.3 2 1.1 3.9 2.4 6 3.1 12 4 17 17.5 11.2 30.7-.8-2.5-1.2-5.3-2.6-7.5-1.1-1.7-3.6-2.5-5.5-3.7-.4 1.9-1.6 4.1-1 5.6 4.6 11 1.3 20.6-4.9 29.8-.6.9-1.5 1.7-2.4 2.7-.4-2.8-.4-5.5-1.2-8-.7-1.9-2.4-3.5-3.6-5.2-2.3 1.7-5.5 2.9-6.5 5.1-1.6 3.5-1.4 7.7-2.3 11.5-.3 1.4-1.4 3.2-2.6 3.6-4.5 1.5-9.3 2.5-13.9 3.7-.6-.6-1.1-1.2-1.7-1.8 1.8-5.3 2.6-11.3 5.5-15.8 4.9-7.6 11.2-14.2 16.8-21.4 2.4-3.1 5.1-6.2 6.3-9.8 2.7-8-1.2-12.5-9.5-12.2-1.5 0-3.2.2-5.1.4z"/><path d="M17.1 54c.8 2 1.5 3.7 2.3 5.4 2.5-1.1 5.4-1.7 7.4-3.4 1.2-1.1 2.1-4.6 1.3-5.6-2.7-3.3-.6-4.9 1.7-6.3 3.2-2 5.4-4 6-8.3.4-2.6 3.9-5.1 6.5-6.9 3.4-2.3 7.3-3.8 11-5.8-.1 1.1-.3 2.3-.5 4.3 4.8-1.3 9.2-2.4 15-3.9-1.8 1.5-2.3 2.1-3 2.4-6.1 2.6-10.4 6.4-12.7 13-.7 2-4.6 3.1-7.2 4-2.8.9-5.9.7-8.7 1.5-3.3.9-5.5 3.5-3.9 6.8 1.7 3.5 5.5 2.8 7.8.8 4.7-4.2 10.5-4.6 16.1-5.7 2.2-.4 4.6-.3 7.2-.4-.1 9.7 6.8 5.2 11.3 6 .1 6.3-4.3 8.2-9.1 9.4-7.4 1.7-11.8 6.1-13.4 13.5-.5 2.2-2 4.3-2.4 6.5-.3 1.6.4 3.5.8 6.3-3.4 3.2-7.7-.3-12.5-1.9-1.2 2.1-2.4 4.1-3.8 6.5-3.8-6.1-1.1-11.6-.1-16.9 2.1 1 4.6 2.9 5.5 2.3 1.6-1 2.2-3.5 3.4-5.8 4.1-.1 7.1-3.1 7.1-7.9 0-3.8-2.5-5.9-6.6-5.6-4 .2-5.7 2.1-4.5 6.1-9.2 1.4-9.2 1.4-7.5 6.7-2.2-.3-4-.9-5.9-.8-1.3.1-2.5 1-4.5 1.9-9-5.4-10.8-12-4.1-18.2z"/></svg>