<svg id="Layer_1_xA0_Image_1_" xmlns="http://www.w3.org/2000/svg" viewBox="0 0 120 120"><style>.st0{fill:#FFFFFF;}</style><path d="M112 50v21c-3.8.3-7.6.3-11.4.8-5.8.8-7.3 4.4-3.8 9.1 2.2 2.9 4.9 5.3 7.1 7.7-5.2 5.2-10.1 10.2-15.3 15.4-2.4-2.2-4.9-4.9-7.7-7.1-4.7-3.6-8.2-2.1-9.1 3.7-.5 3.8-.6 7.6-.8 11.4H50c-.2-3.5-.1-7-.8-10.4-.5-2.2-1.6-5.3-3.3-6-1.7-.7-4.7.7-6.6 1.9-2.8 1.9-5 4.6-7.7 7.1-4.9-5-9.5-9.6-14-14.3-.3-.3-.5-.8-.8-1.4 2.5-2.7 5.2-5.2 7.4-8 3.6-4.7 2.1-8.2-3.8-9.1-3.8-.5-7.6-.5-11.4-.8V50c3.8-.3 7.6-.3 11.4-.8 5.8-.8 7.3-4.4 3.8-9.1-2.2-2.9-4.9-5.3-7.1-7.7 5.2-5.2 10.1-10.2 15.3-15.4 2.4 2.2 4.9 4.9 7.8 7.1 4.7 3.6 8.2 2.1 9.1-3.8.5-3.8.6-7.6.8-11.4h21c.2 3.5.1 7 .8 10.4.5 2.2 1.6 5.3 3.3 6 1.7.7 4.7-.7 6.6-1.9 2.8-1.9 5-4.6 7-6.4l15.3 15.3c-2.3 2.5-5.1 5.1-7.3 8.1-3.2 4.3-1.7 7.7 3.5 8.6 3.7.7 7.7.7 11.7 1zM79.9 60.5c0-10.6-8.9-19.4-19.5-19.4-10.4.1-19.1 8.7-19.3 19.2-.1 10.5 8.7 19.5 19.3 19.6 10.6 0 19.5-8.8 19.5-19.4z"/><path class="st0" d="M50 9c-.3 3.8-.3 7.6-.8 11.4-.8 5.8-4.4 7.3-9.1 3.8-2.9-2.2-5.3-4.9-7.8-7.1-5.1 5.2-10.1 10.2-15.3 15.4 2.2 2.4 4.9 4.8 7.1 7.7 3.6 4.7 2.1 8.2-3.8 9.1-3.7.4-7.5.4-11.3.7V9h41zM112 50c-4-.3-8-.3-11.9-.9-5.3-.8-6.7-4.3-3.5-8.6 2.2-3 5-5.6 7.3-8.1L88.6 17.1c-1.9 1.8-4.2 4.5-7 6.4-1.9 1.3-4.9 2.6-6.6 1.9-1.7-.7-2.8-3.8-3.3-6-.6-3.4-.5-6.9-.7-10.4h41v41zM71 112c.3-3.8.3-7.6.8-11.4.8-5.8 4.4-7.3 9.1-3.7 2.9 2.2 5.3 4.9 7.7 7.1 5.2-5.2 10.1-10.2 15.3-15.4-2.2-2.4-4.9-4.8-7.1-7.7-3.6-4.7-2.1-8.2 3.8-9.1 3.8-.5 7.6-.6 11.4-.8v41H71zM9 71c3.8.3 7.6.3 11.4.8 5.8.8 7.3 4.4 3.8 9.1-2.2 2.9-4.9 5.3-7.4 8 .4.6.5 1.1.8 1.4 4.5 4.6 9.1 9.2 14 14.3 2.7-2.5 5-5.2 7.7-7.1 1.9-1.3 4.9-2.6 6.6-1.9 1.7.7 2.9 3.8 3.3 6 .7 3.4.5 6.9.8 10.4H9V71zM79.9 60.5c0 10.6-8.9 19.4-19.5 19.4-10.6-.1-19.4-9-19.2-19.6.1-10.4 8.8-19 19.2-19.1 10.5-.1 19.5 8.7 19.5 19.3z"/></svg>