<svg id="Layer_1_xA0_Image_1_" xmlns="http://www.w3.org/2000/svg" viewBox="0 0 120 120"><style>.st0{fill:#FFFFFF;}</style><path class="st0" d="M105 56v50H14V57c1.2 3.4 1.7 7.2 3.7 10.1 1.7 2.4 4.9 4.7 7.8 5.1 3.2.5 8.3-6.2 9.3-10.1 1.1-4.4-1.9-5.9-4.7-8.1-4.8-3.8-9.2-8.2-13.9-12.5-.7 2.2-1.5 4.4-2.2 6.5V21h91v23c-1.4-3.4-2.8-6.7-4.5-11.1-2.6 8.6-9.2 12.5-14.8 17.4-5.1 4.5-5.2 8-.7 13.1 5.1 5.9 12.2 5.4 16.2-1.1 1.3-2 2.5-4.2 3.8-6.3zm-50 1.3c-1.6 1.2-2.9 2.7-4.5 3.4-3.7 1.5-8.3 1.8-11.2 4.1-3 2.4-3.9 7.2-6.5 10.2-4.3 4.9-5.1 10.9-1.6 16.5 4.3 6.7 10.8 7.4 17.9 6.7 1.7-.2 3.8.3 5.2 1.2 6.3 4.1 12.8 6.3 20.4 5 9.9-1.7 20.6-14.5 19.6-24.6-.4-4.3-1.5-8.2-7.4-8.8-5.1-.5-9.3-3.6-11.5-8.5-1.1-2.4-2.3-3-5-2.4-5.4 1.2-10.9 1.3-15.4-2.8zm24.7-35.1c-8.4 3.5-16.6 8-19.9 18.1-2.3 7.1-.4 11.9 5.4 14.7 4.9 2.3 15.4-2.4 15.3-7.1-.1-8.5-.5-16.9-.8-25.7zm-36.6 1c-6.9 4.4-11.9 17.1-9.3 25.5 1.2 3.9 2.7 7.4 7.9 7.5 5.5.1 9.5-1.8 11.3-6.3.5-1.3.8-3.1.3-4.2-3.3-7.6-6.8-15.1-10.2-22.5z"/><path d="M105 56c-1.3 2.1-2.5 4.3-3.8 6.3-4.1 6.5-11.1 6.9-16.2 1.1-4.5-5.1-4.3-8.6.7-13.1 5.5-4.9 12.2-8.8 14.8-17.4 1.8 4.4 3.2 7.7 4.5 11.1v12zM14 48c.7-2.2 1.5-4.3 2.2-6.5 4.7 4.3 9.1 8.6 13.9 12.5 2.8 2.2 5.8 3.7 4.7 8.1-.9 3.9-6.1 10.6-9.3 10.1-2.8-.5-6.1-2.7-7.8-5.1-2-2.8-2.6-6.7-3.7-10.1v-9zM55 57.3c4.5 4.1 10 4 15.4 2.8 2.7-.6 3.8 0 5 2.4 2.2 4.9 6.4 8 11.5 8.5 6 .5 7 4.4 7.4 8.8 1 10-9.7 22.9-19.6 24.6-7.7 1.3-14.2-.9-20.4-5-1.4-.9-3.5-1.4-5.2-1.2-7.1.7-13.6 0-17.9-6.7-3.5-5.6-2.7-11.5 1.6-16.5 2.6-3 3.6-7.8 6.5-10.2 2.9-2.4 7.5-2.6 11.2-4.1 1.6-.7 2.9-2.2 4.5-3.4zM79.7 22.2c.3 8.8.7 17.2.8 25.7.1 4.7-10.4 9.5-15.3 7.1-5.8-2.8-7.7-7.5-5.4-14.7 3.3-10.1 11.5-14.6 19.9-18.1zM43.1 23.2c3.4 7.4 6.9 14.9 10.2 22.5.5 1.2.2 2.9-.3 4.2-1.8 4.5-5.8 6.4-11.3 6.3-5.2-.1-6.7-3.6-7.9-7.5-2.6-8.3 2.4-21 9.3-25.5z"/></svg>