<svg id="Layer_1" xmlns="http://www.w3.org/2000/svg" viewBox="0 0 117.3 34"><style>.st0{fill:#FFFFFF;stroke:#000000;stroke-width:2;stroke-miterlimit:10;} .st1{stroke:#000000;stroke-width:0.25;stroke-miterlimit:10;} .st2{stroke:#000000;stroke-width:0.5;stroke-miterlimit:10;} .st3{fill:none;stroke:#000000;stroke-width:2;stroke-miterlimit:10;}</style><path class="st0" d="M68.3 31c0 1.1-.9 2-2.2 2H3.5c-1.3 0-2.3-.9-2.3-2V3c0-1.1 1-2 2.3-2H66c1.3 0 2.2.9 2.2 2v28zM114.2 32.8H86.9c-1.1 0-2-.9-2-2v-28c0-1.1.9-2 2-2h27.3c1.1 0 2 .9 2 2v28c0 1.1-.9 2-2 2z"/><path class="st1" d="M10.9 21.6c.8.5 2 .9 3.3.9 1.9 0 3-1 3-2.4 0-1.3-.8-2.1-2.7-2.8-2.3-.8-3.7-2-3.7-4 0-2.2 1.8-3.8 4.6-3.8 1.4 0 2.5.3 3.1.7l-.5 1.5c-.5-.3-1.4-.7-2.7-.7-1.9 0-2.7 1.2-2.7 2.1 0 1.3.9 2 2.8 2.7 2.4.9 3.6 2.1 3.6 4.2 0 2.2-1.6 4.1-5 4.1-1.4 0-2.9-.4-3.6-.9l.5-1.6zM23.3 9.7v5.9h6.8V9.7H32v14.2h-1.8v-6.6h-6.8v6.6h-1.8V9.7h1.7zM37 9.7v14.2h-1.8V9.7H37zM40.2 9.7h7.6v1.5H42V16h5.4v1.5H42v6.4h-1.8V9.7zM53.1 11.3h-4.3V9.7h10.5v1.6H55v12.6h-1.8V11.3z"/><g><path class="st2" d="M97.1 9.9c.9-.1 2-.3 3.5-.3 1.8 0 3.1.4 4 1.2.8.7 1.2 1.7 1.2 3s-.4 2.3-1.1 3c-1 1-2.5 1.6-4.3 1.6-.5 0-1.1 0-1.5-.1V24h-1.8V9.9zm1.8 6.9c.4.1.9.1 1.5.1 2.2 0 3.5-1.1 3.5-3s-1.3-2.8-3.3-2.8c-.8 0-1.4.1-1.7.1v5.6z"/></g><path class="st3" d="M76.3 12v9.5M71.4 16.8h9.8"/></svg>