<svg id="Layer_1" xmlns="http://www.w3.org/2000/svg" viewBox="0 0 223.7 210.3"><style>.st0{fill:#FFFFFF;}</style><path d="M224.7 13.3v187c-2 5.3-5.7 9-11 11h-203c-5.3-2-9-5.7-11-11v-188C2.8 3.2 9.3.2 18.8.2c62.4.3 124.8.1 187.1.1 11.7 0 14.5 2 18.8 13zM84.3 98.8v43.1h55.8V98.8H84.3zM13.9 142h55.7V98.9H13.9V142zm140.9-43.2v43h55.5v-43h-55.5zM84.2 42.7v41.8h56V42.7h-56zm-70.2 0v41.9h55.7V42.7H14zm140.8 0v41.8h55.6V42.7h-55.6zm-14.6 112.7H84.1V197h56.1v-41.6zm-126.1-.1v41.6h55.5v-41.6H14.1zm140.7 0v41.6h55.5v-41.6h-55.5z"/><path class="st0" d="M224.7 13.3c-4.2-11-7.1-13-18.7-13C143.6.3 81.2.4 18.9.2c-9.5 0-16 3-19.1 12.1v-26h225c-.1 9-.1 18-.1 27zM-.3 200.3c2 5.3 5.7 9 11 11h-11v-11zM213.7 211.3c5.3-2 9-5.7 11-11v11h-11zM84.3 98.8h55.8v43.1H84.3V98.8zM13.9 142V98.9h55.7V142H13.9zM154.8 98.8h55.5v43h-55.5v-43zM84.2 42.7h56v41.8h-56V42.7zM14 42.7h55.7v41.9H14V42.7zM154.8 42.7h55.6v41.8h-55.6V42.7zM140.2 155.4V197H84.1v-41.6h56.1zM14.1 155.3h55.5v41.6H14.1v-41.6zM154.8 155.3h55.5v41.6h-55.5v-41.6z"/></svg>