<?xml version="1.0" encoding="utf-8"?>
<!-- Generator: Adobe Illustrator 19.2.1, SVG Export Plug-In . SVG Version: 6.00 Build 0)  -->
<svg version="1.1" id="Layer_1_xA0_Image_1_" xmlns="http://www.w3.org/2000/svg" xmlns:xlink="http://www.w3.org/1999/xlink"
	 x="0px" y="0px" viewBox="0 0 120 120" style="enable-background:new 0 0 120 120;" xml:space="preserve">
<style type="text/css">
	.st0{fill:#FFFFFF;}
</style>
<g>
	<g>
		<path d="M112,50c0,7,0,14,0,21c-3.8,0.3-7.6,0.3-11.4,0.8c-5.8,0.8-7.3,4.4-3.8,9.1c2.2,2.9,4.9,5.3,7.1,7.7
			c-5.2,5.2-10.1,10.2-15.3,15.4c-2.4-2.2-4.9-4.9-7.7-7.1c-4.7-3.6-8.2-2.1-9.1,3.7c-0.5,3.8-0.6,7.6-0.8,11.4c-7,0-14,0-21,0
			c-0.2-3.5-0.1-7-0.8-10.4c-0.5-2.2-1.6-5.3-3.3-6c-1.7-0.7-4.7,0.7-6.6,1.9c-2.8,1.9-5,4.6-7.7,7.1c-4.9-5-9.5-9.6-14-14.3
			c-0.3-0.3-0.5-0.8-0.8-1.4c2.5-2.7,5.2-5.2,7.4-8c3.6-4.7,2.1-8.2-3.8-9.1C16.6,71.3,12.8,71.3,9,71c0-7,0-14,0-21
			c3.8-0.3,7.6-0.3,11.4-0.8c5.8-0.8,7.3-4.4,3.8-9.1c-2.2-2.9-4.9-5.3-7.1-7.7c5.2-5.2,10.1-10.2,15.3-15.4
			c2.4,2.2,4.9,4.9,7.8,7.1c4.7,3.6,8.2,2.1,9.1-3.8c0.5-3.8,0.6-7.6,0.8-11.4c7,0,14,0,21,0c0.2,3.5,0.1,7,0.8,10.4
			c0.5,2.2,1.6,5.3,3.3,6c1.7,0.7,4.7-0.7,6.6-1.9c2.8-1.9,5-4.6,7-6.4c5.3,5.3,10.2,10.2,15.3,15.3c-2.3,2.5-5.1,5.1-7.3,8.1
			c-3.2,4.3-1.7,7.7,3.5,8.6C104,49.7,108,49.7,112,50z M79.9,60.5c0-10.6-8.9-19.4-19.5-19.4C50,41.2,41.3,49.8,41.1,60.3
			C41,70.8,49.8,79.8,60.4,79.9C71,79.9,79.9,71.1,79.9,60.5z"/>
		<path class="st0" d="M50,9c-0.3,3.8-0.3,7.6-0.8,11.4c-0.8,5.8-4.4,7.3-9.1,3.8c-2.9-2.2-5.3-4.9-7.8-7.1
			c-5.1,5.2-10.1,10.2-15.3,15.4c2.2,2.4,4.9,4.8,7.1,7.7c3.6,4.7,2.1,8.2-3.8,9.1C16.6,49.7,12.8,49.7,9,50C9,36.3,9,22.7,9,9
			C22.7,9,36.3,9,50,9z"/>
		<path class="st0" d="M112,50c-4-0.3-8-0.3-11.9-0.9c-5.3-0.8-6.7-4.3-3.5-8.6c2.2-3,5-5.6,7.3-8.1c-5.1-5.1-10-10-15.3-15.3
			c-1.9,1.8-4.2,4.5-7,6.4c-1.9,1.3-4.9,2.6-6.6,1.9c-1.7-0.7-2.8-3.8-3.3-6C71.1,16,71.2,12.5,71,9c13.7,0,27.3,0,41,0
			C112,22.7,112,36.3,112,50z"/>
		<path class="st0" d="M71,112c0.3-3.8,0.3-7.6,0.8-11.4c0.8-5.8,4.4-7.3,9.1-3.7c2.9,2.2,5.3,4.9,7.7,7.1
			c5.2-5.2,10.1-10.2,15.3-15.4c-2.2-2.4-4.9-4.8-7.1-7.7c-3.6-4.7-2.1-8.2,3.8-9.1c3.8-0.5,7.6-0.6,11.4-0.8c0,13.7,0,27.3,0,41
			C98.3,112,84.7,112,71,112z"/>
		<path class="st0" d="M9,71c3.8,0.3,7.6,0.3,11.4,0.8c5.8,0.8,7.3,4.4,3.8,9.1c-2.2,2.9-4.9,5.3-7.4,8c0.4,0.6,0.5,1.1,0.8,1.4
			c4.5,4.6,9.1,9.2,14,14.3c2.7-2.5,5-5.2,7.7-7.1c1.9-1.3,4.9-2.6,6.6-1.9c1.7,0.7,2.9,3.8,3.3,6c0.7,3.4,0.5,6.9,0.8,10.4
			c-13.7,0-27.3,0-41,0C9,98.3,9,84.7,9,71z"/>
		<path class="st0" d="M79.9,60.5c0,10.6-8.9,19.4-19.5,19.4c-10.6-0.1-19.4-9-19.2-19.6c0.1-10.4,8.8-19,19.2-19.1
			C70.9,41.1,79.9,49.9,79.9,60.5z"/>
	</g>
</g>
</svg>
