<?xml version="1.0" encoding="utf-8"?>
<!-- Generator: Adobe Illustrator 19.2.1, SVG Export Plug-In . SVG Version: 6.00 Build 0)  -->
<svg version="1.1" id="fill_xA0_Image_1_" xmlns="http://www.w3.org/2000/svg" xmlns:xlink="http://www.w3.org/1999/xlink" x="0px"
	 y="0px" viewBox="0 0 120 120" style="enable-background:new 0 0 120 120;" xml:space="preserve">
<style type="text/css">
	.st0{fill:#FFFFFF;}
</style>
<g>
	<g>
		<path class="st0" d="M107.8,109c-32.1,0-63.9,0-95.7,0c0-30.6,0-61.2,0-91.9c31.9,0,63.8,0,95.7,0
			C107.8,47.7,107.8,78.3,107.8,109z M70.4,47.2c1.9-0.2,3.5-0.4,5.2-0.4C84,46.4,87.8,51,85.2,59c-1.2,3.6-3.9,6.7-6.3,9.8
			C73.3,76,66.9,82.6,62.1,90.2c-2.9,4.6-3.7,10.5-5.5,15.8c0.6,0.6,1.1,1.2,1.7,1.8c4.6-1.2,9.4-2.2,13.9-3.7
			c1.2-0.4,2.3-2.2,2.6-3.6c0.9-3.8,0.8-8,2.3-11.5c1-2.2,4.3-3.4,6.5-5.1c1.2,1.7,2.9,3.3,3.6,5.2c0.8,2.4,0.8,5.1,1.2,8
			c0.9-1,1.8-1.7,2.4-2.7c6.2-9.2,9.5-18.8,4.9-29.8c-0.6-1.5,0.6-3.7,1-5.6c1.9,1.2,4.3,2,5.5,3.7c1.4,2.1,1.8,5,2.6,7.5
			c5.7-13.2,0.8-26.6-11.2-30.7c-2.1-0.7-4-2.1-6-3.1c2.2-1.1,4.5-2.2,6.7-3.3c0.4-0.2,0.8-0.3,1.6-0.6c-8.3-6.5-17-5.8-25.6-2.8
			c-6.3,2.2-12.3,5.4-15.2,12.7c6,0,11.3,0,17.1,0C71.4,44.2,71,45.6,70.4,47.2z M17.1,54c-6.7,6.2-4.9,12.8,4.2,18.2
			c2-0.9,3.2-1.8,4.5-1.9c1.8-0.1,3.7,0.5,5.9,0.8c-1.7-5.3-1.7-5.3,7.5-6.7c-1.2-4,0.5-5.9,4.5-6.1c4.1-0.2,6.6,1.9,6.6,5.6
			c0,4.8-3,7.8-7.1,7.9c-1.2,2.3-1.8,4.8-3.4,5.8c-0.9,0.6-3.4-1.4-5.5-2.3c-1.1,5.3-3.8,10.8,0.1,16.9c1.4-2.4,2.6-4.4,3.8-6.5
			c4.8,1.6,9.1,5.1,12.5,1.9c-0.4-2.8-1.1-4.6-0.8-6.3c0.4-2.2,1.9-4.3,2.4-6.5c1.6-7.5,6-11.8,13.4-13.5c4.8-1.1,9.2-3.1,9.1-9.4
			c-4.4-0.9-11.4,3.6-11.3-6c-2.6,0.1-5,0-7.2,0.4c-5.6,1.1-11.4,1.5-16.1,5.7c-2.2,2-6.1,2.6-7.8-0.8c-1.6-3.3,0.6-5.9,3.9-6.8
			c2.8-0.8,5.9-0.6,8.7-1.5c2.6-0.8,6.5-2,7.2-4c2.3-6.6,6.6-10.4,12.7-13c0.7-0.3,1.2-1,3-2.4c-5.8,1.5-10.2,2.7-15,3.9
			c0.2-2,0.4-3.2,0.5-4.3c-3.7,1.9-7.6,3.5-11,5.8c-2.6,1.8-6.1,4.3-6.5,6.9c-0.7,4.3-2.9,6.3-6,8.3c-2.2,1.4-4.4,3-1.7,6.3
			c0.8,1-0.1,4.5-1.3,5.6c-2,1.7-4.9,2.3-7.4,3.4C18.7,57.7,17.9,56,17.1,54z"/>
		<path d="M70.4,47.2c0.6-1.6,1-3,1.6-4.8c-5.7,0-11.1,0-17.1,0c2.9-7.3,8.9-10.5,15.2-12.7c8.6-3.1,17.4-3.7,25.6,2.8
			c-0.9,0.3-1.3,0.4-1.6,0.6c-2.2,1.1-4.5,2.2-6.7,3.3c2,1.1,3.9,2.4,6,3.1c12,4,17,17.5,11.2,30.7c-0.8-2.5-1.2-5.3-2.6-7.5
			c-1.1-1.7-3.6-2.5-5.5-3.7c-0.4,1.9-1.6,4.1-1,5.6c4.6,11,1.3,20.6-4.9,29.8c-0.6,0.9-1.5,1.7-2.4,2.7c-0.4-2.8-0.4-5.5-1.2-8
			c-0.7-1.9-2.4-3.5-3.6-5.2c-2.3,1.7-5.5,2.9-6.5,5.1c-1.6,3.5-1.4,7.7-2.3,11.5c-0.3,1.4-1.4,3.2-2.6,3.6
			c-4.5,1.5-9.3,2.5-13.9,3.7c-0.6-0.6-1.1-1.2-1.7-1.8c1.8-5.3,2.6-11.3,5.5-15.8c4.9-7.6,11.2-14.2,16.8-21.4
			c2.4-3.1,5.1-6.2,6.3-9.8c2.7-8-1.2-12.5-9.5-12.2C74,46.8,72.3,47,70.4,47.2z"/>
		<path d="M17.1,54c0.8,2,1.5,3.7,2.3,5.4c2.5-1.1,5.4-1.7,7.4-3.4c1.2-1.1,2.1-4.6,1.3-5.6c-2.7-3.3-0.6-4.9,1.7-6.3
			c3.2-2,5.4-4,6-8.3c0.4-2.6,3.9-5.1,6.5-6.9c3.4-2.3,7.3-3.8,11-5.8c-0.1,1.1-0.3,2.3-0.5,4.3c4.8-1.3,9.2-2.4,15-3.9
			c-1.8,1.5-2.3,2.1-3,2.4c-6.1,2.6-10.4,6.4-12.7,13c-0.7,2-4.6,3.1-7.2,4c-2.8,0.9-5.9,0.7-8.7,1.5c-3.3,0.9-5.5,3.5-3.9,6.8
			c1.7,3.5,5.5,2.8,7.8,0.8c4.7-4.2,10.5-4.6,16.1-5.7c2.2-0.4,4.6-0.3,7.2-0.4c-0.1,9.7,6.8,5.2,11.3,6c0.1,6.3-4.3,8.2-9.1,9.4
			c-7.4,1.7-11.8,6.1-13.4,13.5c-0.5,2.2-2,4.3-2.4,6.5c-0.3,1.6,0.4,3.5,0.8,6.3c-3.4,3.2-7.7-0.3-12.5-1.9
			c-1.2,2.1-2.4,4.1-3.8,6.5c-3.8-6.1-1.1-11.6-0.1-16.9c2.1,1,4.6,2.9,5.5,2.3c1.6-1,2.2-3.5,3.4-5.8c4.1-0.1,7.1-3.1,7.1-7.9
			c0-3.8-2.5-5.9-6.6-5.6c-4,0.2-5.7,2.1-4.5,6.1c-9.2,1.4-9.2,1.4-7.5,6.7c-2.2-0.3-4-0.9-5.9-0.8c-1.3,0.1-2.5,1-4.5,1.9
			C12.2,66.8,10.4,60.2,17.1,54z"/>
	</g>
</g>
</svg>
