<?xml version="1.0" encoding="utf-8"?>
<!-- Generator: Adobe Illustrator 19.2.1, SVG Export Plug-In . SVG Version: 6.00 Build 0)  -->
<svg version="1.1" id="Layer_1_xA0_Image_1_" xmlns="http://www.w3.org/2000/svg" xmlns:xlink="http://www.w3.org/1999/xlink"
	 x="0px" y="0px" viewBox="0 0 120 120" style="enable-background:new 0 0 120 120;" xml:space="preserve">
<style type="text/css">
	.st0{fill:#FFFFFF;}
</style>
<g>
	<g>
		<path d="M99,56c0,3.7,0,7.3,0,11c-4.5,2.6-9.1,5-13.4,7.8c-1.5,0.9-2.6,2.8-3.3,4.5c-0.6,1.4-0.3,3.2-0.5,5.4
			c-13.8,0-27.3,0-40.5,0c-0.4-0.7-0.6-0.8-0.6-0.9c-0.1-0.5-0.1-1-0.1-1.5c0.6-4.7-0.2-7.3-6-8.5c-10.9-2.3-15.3-18.6-7.2-26.3
			c4.6-4.4,7.1-9.8,9.3-15.5c1.9-5,5.3-8.2,10.2-9.3c9.5-2.3,19.2-2.5,28.6,0.3c3.3,1,6.3,4.5,8.6,7.4c2,2.5,2.5,6.1,4.2,8.9
			C91.7,44.9,95.4,50.4,99,56z M75.1,67.9c7-0.7,12-4.5,11.6-8.9c-0.5-4.5-5.6-7.7-11.3-7.1c-3.7,0.5-8.2,6.3-7.7,10.2
			C68.1,65.6,71.4,68.2,75.1,67.9z M47.6,68c3.8,0.2,6.9-2.6,7.1-6.6c0.2-4-4.3-9.1-8-9.3c-6.1-0.2-10,2.1-10.3,6.2
			C35.9,63.1,41.1,67.5,47.6,68z"/>
		<path class="st0" d="M99,56c-3.6-5.6-7.3-11.1-10.7-16.8c-1.7-2.8-2.2-6.4-4.2-8.9c-2.3-3-5.3-6.5-8.6-7.4
			c-9.3-2.8-19.1-2.6-28.6-0.3c-4.8,1.2-8.2,4.3-10.2,9.3c-2.1,5.6-4.6,11-9.3,15.5c-8.1,7.8-3.7,24.1,7.2,26.3
			c5.8,1.2,6.6,3.8,6,8.5c-0.1,0.5,0,1,0.1,1.5c0,0.1,0.2,0.3,0.6,0.9c13.2,0,26.7,0,40.5,0c0.1-2.2-0.1-4,0.5-5.4
			c0.7-1.7,1.8-3.5,3.3-4.5C89.9,72,94.5,69.6,99,67c0,11.7,0,23.3,0,35c-25.3,0-50.7,0-76,0c0-27.3,0-54.7,0-82c25.3,0,50.7,0,76,0
			C99,32,99,44,99,56z M60.2,100.8c0.2-3.4,0.7-6.4,0.3-9.2c-0.2-1.6-1.8-4-3.1-4.3c-1.4-0.3-4.2,1.1-4.8,2.4
			c-1.3,3.2-1.6,6.8-2.3,10.2C53.4,100.1,56.5,100.4,60.2,100.8z M72.2,99.6c1.4-4.8-0.4-8.6-4.1-11.7c-2.7-2.3-4.8-1.3-5.7,1.6
			c-2.7,8.3,0.9,12.3,9.2,10.5C71.8,99.9,71.9,99.8,72.2,99.6z M46,101.4c1.4-4.9,2.5-8.1,3.2-11.5c0.7-3.3-1.3-4.1-4.1-3.4
			c-3.4,0.9-7.3,6-6.1,9.6C39.7,98.2,43.1,99.3,46,101.4z M76.7,100.5c2.8-1.6,6.6-2.5,6.9-4.1c1.1-5.7-3.6-9.8-10.7-9.4
			C74.1,91,75.2,94.8,76.7,100.5z"/>
		<path class="st0" d="M75.1,67.9c-3.7,0.4-7-2.2-7.4-5.8c-0.5-3.9,4-9.7,7.7-10.2c5.7-0.7,10.8,2.5,11.3,7.1
			C87.1,63.3,82.1,67.2,75.1,67.9z"/>
		<path class="st0" d="M47.6,68c-6.5-0.4-11.6-4.8-11.2-9.6c0.3-4.1,4.3-6.5,10.3-6.2c3.7,0.1,8.2,5.3,8,9.3
			C54.5,65.3,51.4,68.2,47.6,68z"/>
		<path d="M60.2,100.8c-3.7-0.3-6.8-0.6-10-0.9c0.7-3.4,1-7,2.3-10.2c0.5-1.3,3.3-2.7,4.8-2.4c1.3,0.3,2.9,2.7,3.1,4.3
			C60.9,94.4,60.4,97.4,60.2,100.8z"/>
		<path d="M72.2,99.6c-0.3,0.2-0.4,0.3-0.6,0.3c-8.3,1.8-12-2.2-9.2-10.5c1-2.9,3-3.9,5.7-1.6C71.8,91,73.6,94.8,72.2,99.6z"/>
		<path d="M46,101.4c-2.9-2.1-6.3-3.2-7-5.3c-1.2-3.5,2.7-8.7,6.1-9.6c2.8-0.7,4.8,0.1,4.1,3.4C48.5,93.3,47.4,96.5,46,101.4z"/>
		<path d="M76.7,100.5C75.2,94.8,74.1,91,73,87c7-0.4,11.7,3.7,10.7,9.4C83.4,98,79.5,98.9,76.7,100.5z"/>
	</g>
</g>
</svg>
