<?xml version="1.0" encoding="utf-8"?>
<!-- Generator: Adobe Illustrator 19.2.1, SVG Export Plug-In . SVG Version: 6.00 Build 0)  -->
<svg version="1.1" id="Layer_1_xA0_Image_1_" xmlns="http://www.w3.org/2000/svg" xmlns:xlink="http://www.w3.org/1999/xlink"
	 x="0px" y="0px" viewBox="0 0 120 120" style="enable-background:new 0 0 120 120;" xml:space="preserve">
<style type="text/css">
	.st0{fill:#FFFFFF;}
</style>
<g>
	<g>
		<path class="st0" d="M108.8,111C77,111,45,111,13,111c0-33.3,0-66.5,0-99.9c31.9,0,63.8,0,95.8,0C108.8,44.3,108.8,77.7,108.8,111
			z M60.9,14.7c-5.3,25.6-21.3,39.8-45.8,46.4c25.3,5.8,40.1,21.2,45.9,46.2c5.5-25.6,21.1-40.2,45.8-46.6
			C82,54.6,66.7,40,60.9,14.7z M45.2,84.9C41.1,81,37.7,77.8,33.8,74c-1.7,5.5-3.1,9.8-4.4,13.9C34.2,87,38.9,86.1,45.2,84.9z
			 M92.1,87.6c-1.4-4.6-2.6-8.5-4.2-13.8c-4,4-7.2,7.2-11.2,11.2C82.8,86.1,87.1,86.8,92.1,87.6z M76.8,37
			c4.1,3.8,7.6,6.9,11.3,10.3c1.7-5.6,2.9-9.7,4.2-13.9C87.5,34.5,82.9,35.6,76.8,37z M33.5,46.7c4.4-2.6,8.3-5.2,10.1-10
			c-5.1-1.1-9.4-2.1-14-3.2C30.9,37.9,32.1,42,33.5,46.7z"/>
		<path d="M60.9,14.7c5.7,25.3,21,39.9,45.9,46.1c-24.6,6.3-40.3,21-45.8,46.6c-5.8-25-20.6-40.4-45.9-46.2
			C39.6,54.5,55.6,40.3,60.9,14.7z"/>
		<path d="M45.2,84.9c-6.3,1.2-10.9,2.1-15.7,3.1c1.3-4.2,2.6-8.4,4.4-13.9C37.7,77.8,41.1,81,45.2,84.9z"/>
		<path d="M92.1,87.6c-5-0.9-9.3-1.6-15.4-2.6c3.9-3.9,7.2-7.2,11.2-11.2C89.5,79.1,90.8,83.1,92.1,87.6z"/>
		<path d="M76.8,37c6.2-1.4,10.7-2.5,15.5-3.6c-1.3,4.2-2.5,8.4-4.2,13.9C84.3,43.9,80.9,40.8,76.8,37z"/>
		<path d="M33.5,46.7c-1.4-4.7-2.6-8.8-4-13.1c4.6,1,9,2,14,3.2C41.8,41.4,37.9,44.1,33.5,46.7z"/>
	</g>
</g>
</svg>
