<svg id="Layer_1_xA0_Image_1_" xmlns="http://www.w3.org/2000/svg" viewBox="0 0 120 120"><style>.st0{fill:#FFFFFF;}</style><path d="M99 56v11c-4.5 2.6-9.1 5-13.4 7.8-1.5.9-2.6 2.8-3.3 4.5-.6 1.4-.3 3.2-.5 5.4H41.3c-.4-.7-.6-.8-.6-.9-.1-.5-.1-1-.1-1.5.6-4.7-.2-7.3-6-8.5-10.9-2.3-15.3-18.6-7.2-26.3 4.6-4.4 7.1-9.8 9.3-15.5 1.9-5 5.3-8.2 10.2-9.3 9.5-2.3 19.2-2.5 28.6.3 3.3 1 6.3 4.5 8.6 7.4 2 2.5 2.5 6.1 4.2 8.9C91.7 44.9 95.4 50.4 99 56zM75.1 67.9c7-.7 12-4.5 11.6-8.9-.5-4.5-5.6-7.7-11.3-7.1-3.7.5-8.2 6.3-7.7 10.2.4 3.5 3.7 6.1 7.4 5.8zm-27.5.1c3.8.2 6.9-2.6 7.1-6.6.2-4-4.3-9.1-8-9.3-6.1-.2-10 2.1-10.3 6.2-.5 4.8 4.7 9.2 11.2 9.7z"/><path class="st0" d="M99 56c-3.6-5.6-7.3-11.1-10.7-16.8-1.7-2.8-2.2-6.4-4.2-8.9-2.3-3-5.3-6.5-8.6-7.4-9.3-2.8-19.1-2.6-28.6-.3-4.8 1.2-8.2 4.3-10.2 9.3-2.1 5.6-4.6 11-9.3 15.5-8.1 7.8-3.7 24.1 7.2 26.3 5.8 1.2 6.6 3.8 6 8.5-.1.5 0 1 .1 1.5 0 .1.2.3.6.9h40.5c.1-2.2-.1-4 .5-5.4.7-1.7 1.8-3.5 3.3-4.5C89.9 72 94.5 69.6 99 67v35H23V20h76v36zm-38.8 44.8c.2-3.4.7-6.4.3-9.2-.2-1.6-1.8-4-3.1-4.3-1.4-.3-4.2 1.1-4.8 2.4-1.3 3.2-1.6 6.8-2.3 10.2 3.1.2 6.2.5 9.9.9zm12-1.2c1.4-4.8-.4-8.6-4.1-11.7-2.7-2.3-4.8-1.3-5.7 1.6-2.7 8.3.9 12.3 9.2 10.5.2-.1.3-.2.6-.4zM46 101.4c1.4-4.9 2.5-8.1 3.2-11.5.7-3.3-1.3-4.1-4.1-3.4-3.4.9-7.3 6-6.1 9.6.7 2.1 4.1 3.2 7 5.3zm30.7-.9c2.8-1.6 6.6-2.5 6.9-4.1 1.1-5.7-3.6-9.8-10.7-9.4 1.2 4 2.3 7.8 3.8 13.5z"/><path class="st0" d="M75.1 67.9c-3.7.4-7-2.2-7.4-5.8-.5-3.9 4-9.7 7.7-10.2 5.7-.7 10.8 2.5 11.3 7.1.4 4.3-4.6 8.2-11.6 8.9zM47.6 68c-6.5-.4-11.6-4.8-11.2-9.6.3-4.1 4.3-6.5 10.3-6.2 3.7.1 8.2 5.3 8 9.3-.2 3.8-3.3 6.7-7.1 6.5z"/><path d="M60.2 100.8c-3.7-.3-6.8-.6-10-.9.7-3.4 1-7 2.3-10.2.5-1.3 3.3-2.7 4.8-2.4 1.3.3 2.9 2.7 3.1 4.3.5 2.8 0 5.8-.2 9.2zM72.2 99.6c-.3.2-.4.3-.6.3-8.3 1.8-12-2.2-9.2-10.5 1-2.9 3-3.9 5.7-1.6 3.7 3.2 5.5 7 4.1 11.8zM46 101.4c-2.9-2.1-6.3-3.2-7-5.3-1.2-3.5 2.7-8.7 6.1-9.6 2.8-.7 4.8.1 4.1 3.4-.7 3.4-1.8 6.6-3.2 11.5zM76.7 100.5C75.2 94.8 74.1 91 73 87c7-.4 11.7 3.7 10.7 9.4-.3 1.6-4.2 2.5-7 4.1z"/></svg>