<svg id="Layer_1_xA0_Image_1_" xmlns="http://www.w3.org/2000/svg" viewBox="0 0 120 120"><style>.st0{fill:#FFFFFF;}</style><path d="M33 28h16c10.7 4.7 21.7 8.9 32.1 14.1 9.1 4.6 18.1 8.6 29 7-2.2 4.6-4 9.2-9.7 9.9-4.8.6-9.5 1.1-14.3 1.6-.2.5-.3 1.1-.5 1.6 4.7 1.8 9.5 3.6 14.6 5.6-6.8 4.7-13.4 4-20.2.8-.2.7-.3 1.4-.5 2.1 3.7 2 7.4 4.1 11.4 6.3-6.9 3.3-13 2.6-18.7-2.6.8 1.5 1.5 3 2.4 4.7-7.1 2.8-11.5-.8-15.9-5.5.7 1.6 1.3 3.2 2.6 6.3-4.5-1.4-7.9-2.4-11.8-3.6 1.7 2.3 3.1 4.1 4.5 6.1-5.3 2.2-9.3.5-13.1-2.6 1.1 2.1 2.1 4.2 3.2 6.4-4.8 4.1-8.6-.6-14.4-1.1 2.7 3.2 4.5 5.5 6.4 7.8-8.6 2.2-13.4-.4-15.5-8.5-.6-2.2-.7-4.6-1.3-6.8C18.1 73 17.2 68.1 12 66V48c2.8-4.5 5-9.7 8.7-13.3 3.2-3.2 8.1-4.5 12.3-6.7z"/><path class="st0" d="M12 66c5.2 2.1 6.1 7 7.4 11.5.6 2.2.7 4.6 1.3 6.8 2.2 8.1 6.9 10.7 15.5 8.5-1.9-2.3-3.7-4.6-6.4-7.8 5.8.5 9.6 5.2 14.4 1.1-1.1-2.1-2.2-4.2-3.2-6.3 3.9 3.1 7.8 4.8 13.1 2.6-1.4-1.9-2.8-3.8-4.5-6.1 3.9 1.2 7.3 2.2 11.8 3.6-1.3-3-1.9-4.6-2.6-6.3 4.4 4.7 8.8 8.2 15.9 5.5-.9-1.7-1.6-3.2-2.4-4.7C78 79.6 84.1 80.3 91 77c-4-2.2-7.7-4.3-11.4-6.3.2-.7.3-1.4.5-2.1 6.8 3.2 13.4 3.9 20.2-.8-5.2-2-9.9-3.8-14.6-5.6.2-.5.3-1.1.5-1.6 4.8-.5 9.5-1 14.3-1.6 5.7-.7 7.4-5.3 9.7-9.9-10.9 1.5-19.9-2.5-29-7C70.7 36.9 59.7 32.7 49 28h62v67H12V66zM33 28c-4.2 2.2-9.1 3.5-12.3 6.7C17 38.3 14.8 43.5 12 48V28h21z"/></svg>