<?xml version="1.0" encoding="utf-8"?>
<!-- Generator: Adobe Illustrator 19.2.1, SVG Export Plug-In . SVG Version: 6.00 Build 0)  -->
<svg version="1.1" id="Layer_1" xmlns="http://www.w3.org/2000/svg" xmlns:xlink="http://www.w3.org/1999/xlink" x="0px" y="0px"
	 viewBox="0 0 114.1 157" style="enable-background:new 0 0 114.1 157;" xml:space="preserve">
<style type="text/css">
	.st0{clip-path:url(#SVGID_2_);}
	.st1{fill:#FFFFFF;}
</style>
<g>
	<defs>
		<polygon id="SVGID_1_" points="1.6,0 114.1,0 112.5,157 0,157 		"/>
	</defs>
	<clipPath id="SVGID_2_">
		<use xlink:href="#SVGID_1_"  style="overflow:visible;"/>
	</clipPath>
	<g class="st0">
		<g>
			<path class="st1" d="M170,194c-74.9,0-149.9,0-224.9,0c0-74.9,0-149.8,0-224.8c74.9,0,149.9,0,224.9,0C170,44,170,119,170,194z
				 M58.4,12c-1.1,0.5-1.5,0.6-1.7,0.8C39.3,34.9,23.1,57.6,12.9,84c-3.2,8.2-5,16.6-3.7,25.5c4.1,28.4,31.2,47.5,58.6,41.2
				c28.6-6.6,45.3-34.8,35.4-62.5c-5.1-14.3-12.6-27.9-20.4-41C75.5,34.8,66.5,23.6,58.4,12z"/>
			<path d="M58.4,12c8.1,11.6,17.1,22.8,24.4,35.1c7.8,13.1,15.3,26.7,20.4,41c9.9,27.8-6.7,56-35.4,62.5
				c-27.4,6.3-54.5-12.8-58.6-41.2c-1.3-8.8,0.5-17.3,3.7-25.5c10.2-26.4,26.5-49.2,43.9-71.2C56.9,12.6,57.3,12.6,58.4,12z
				 M41.2,134.7c0.2-0.5,0.4-0.6,0.4-0.7c-0.4-1.4-0.8-2.9-1.2-4.3c-3.8-13-5.7-26.1-2.4-39.4c2.5-10,5.2-20,8-29.9
				c2-7.2,4.2-14.2,6.3-21.4c-4.9,6.3-9.1,12.9-12.6,19.8c-5.9,11.5-12.6,22.8-16.8,35C17.6,109,26.6,127.4,41.2,134.7z"/>
			<path class="st1" d="M41.2,134.7c-14.6-7.3-23.7-25.8-18.4-41c4.2-12.1,10.9-23.5,16.8-35c3.5-6.9,7.8-13.5,12.6-19.8
				C50.2,46.1,48,53.2,46,60.3c-2.7,9.9-5.5,19.9-8,29.9c-3.3,13.4-1.4,26.5,2.4,39.4c0.4,1.4,0.8,2.9,1.2,4.3
				C41.6,134.1,41.5,134.3,41.2,134.7z"/>
		</g>
	</g>
</g>
</svg>
