<svg id="Layer_1" data-name="Layer 1" xmlns="http://www.w3.org/2000/svg" viewBox="0 0 336.36 336.37"><defs><style>.cls-1,.cls-2{fill:#6a37ff;}.cls-1,.cls-3{stroke:#000;stroke-miterlimit:10;}.cls-3{fill:none;}</style></defs><title>pet-family-magical</title><path class="cls-1" d="M330.24,166.33A168.19,168.19,0,0,0,162.06,334.52,168.19,168.19,0,0,0-6.12,166.33,168.18,168.18,0,0,0,162.06-1.85,168.18,168.18,0,0,0,330.24,166.33Z" transform="translate(6.12 1.85)"/><path class="cls-2" d="M123.75,83.56s0.92,9.63-16,26.59S80,127.33,80,127.33L64,67.54Z" transform="translate(6.12 1.85)"/><path class="cls-3" d="M64,67.54l59.79,16s0.92,9.63-16,26.59S80,127.33,80,127.33Z" transform="translate(6.12 1.85)"/><path class="cls-2" d="M248.29,127.89s-9.51,1.76-27.89-13.65S200.87,88.1,200.87,88.1L259,66.93Z" transform="translate(6.12 1.85)"/><path class="cls-3" d="M259,66.93l-10.75,61s-9.51,1.76-27.89-13.65S200.87,88.1,200.87,88.1Z" transform="translate(6.12 1.85)"/><path class="cls-2" d="M199.24,247.81s-0.92-9.63,16-26.59S243,204,243,204l16,59.79Z" transform="translate(6.12 1.85)"/><path class="cls-3" d="M259,263.83l-59.79-16s-0.92-9.63,16-26.59S243,204,243,204Z" transform="translate(6.12 1.85)"/><path class="cls-2" d="M80,204s9.63-.92,26.59,16,17.18,27.74,17.18,27.74L64,263.84Z" transform="translate(6.12 1.85)"/><path class="cls-3" d="M64,263.84L80,204s9.63-.92,26.59,16,17.18,27.74,17.18,27.74Z" transform="translate(6.12 1.85)"/></svg>