<?xml version="1.0" encoding="utf-8"?>
<!-- Generator: Adobe Illustrator 19.2.1, SVG Export Plug-In . SVG Version: 6.00 Build 0)  -->
<svg version="1.1" id="Layer_1_xA0_Image_1_" xmlns="http://www.w3.org/2000/svg" xmlns:xlink="http://www.w3.org/1999/xlink"
	 x="0px" y="0px" viewBox="0 0 120 120" style="enable-background:new 0 0 120 120;" xml:space="preserve">
<style type="text/css">
	.st0{fill:#FFFFFF;}
</style>
<g>
	<g>
		<path d="M70,25c0.3,0,0.7,0,1,0c2.7,1.7,5.5,3.4,8.6,5.3c0.8-0.4,2-1.2,3.4-1.8c5.4-2.5,14-1.7,17,1.5c0,1.3,0,2.7,0,4
			c-2.8,3.8-5.5,7.8-8.5,11.3c-3.4,3.9-6.5,8.6-10.9,10.9c-4,2.1-4.8,4.6-4.1,7.8c0.9,3.9,4.4,2.4,7.1,2.3c3-0.2,6-0.9,8.8-0.2
			c1.5,0.3,2.5,2.9,3.8,4.4c-1.7,0.8-3.4,2.2-5.2,2.4c-3.8,0.3-7.7-0.7-11.4,0c-6.2,1.1-12,2.3-14.7-6c-5.4,3.7-12.2,3.1-17.6,7.9
			c5.2,1.4,9.1,2,12.8,3.4c5.3,2,6.4,6.1,2.8,10.7C55,82.8,46.1,80,36,81.6c0.3-3,0.6-5.4,0.8-7.7c-4.6-0.9-8.5-1.7-12.8-2.6
			c0.3,6.1,2.1,10.8,6,14.5c5.3,5.1,11.9,7.1,19,7.7c5.9,0.5,11.1,2.4,17.4,6.8c-4.9,2.4-8.4,4.9-12.3,6c-10.3,2.8-23.5-3.1-30.1-14
			c-3.8-6.3-6-13.6-8.9-20.4c0-3,0-6,0-9c0.5-1.4,1.1-2.7,1.4-4.2c3.5-16.2,19.8-28.2,36.9-20.1c4.8,2.3,10.2,2.1,15.4,0.3
			C65.5,31.8,65.8,28.8,70,25z"/>
		<path class="st0" d="M15,72c2.9,6.8,5.1,14.1,8.9,20.4c6.7,11,19.9,16.8,30.1,14c3.9-1.1,7.5-3.6,12.3-6C60.1,96,54.9,94,49,93.6
			C42,93,35.3,90.9,30,85.8c-3.9-3.7-5.7-8.4-6-14.5c4.4,0.9,8.2,1.7,12.8,2.6c-0.2,2.3-0.5,4.7-0.8,7.7c10-1.6,19,1.2,26.9,7.3
			c3.6-4.6,2.5-8.7-2.8-10.7c-3.7-1.4-7.6-2.1-12.8-3.4c5.4-4.8,12.2-4.2,17.6-7.9c2.7,8.3,8.5,7.1,14.7,6c3.7-0.7,7.6,0.3,11.4,0
			c1.8-0.1,3.5-1.5,5.2-2.4c-1.2-1.5-2.3-4.1-3.8-4.4c-2.8-0.6-5.9,0.1-8.8,0.2c-2.7,0.2-6.2,1.6-7.1-2.3c-0.7-3.2,0.1-5.7,4.1-7.8
			c4.3-2.3,7.5-6.9,10.9-10.9c3.1-3.6,5.7-7.6,8.5-11.3c0,24.6,0,49.2,0,73.9c-28.3,0-56.7,0-85,0C15,95.9,15,84,15,72z"/>
		<path class="st0" d="M70,25c-4.2,3.8-4.5,6.8-1.2,14.1c-5.3,1.7-10.7,1.9-15.4-0.3c-17.1-8.1-33.4,3.9-36.9,20.1
			c-0.3,1.4-0.9,2.8-1.4,4.2c0-12.7,0-25.3,0-38C33.3,25,51.7,25,70,25z"/>
		<path class="st0" d="M100,30c-3-3.2-11.7-4-17-1.5c-1.3,0.6-2.6,1.4-3.4,1.8c-3.1-1.9-5.9-3.6-8.6-5.3c9.7,0,19.3,0,29,0
			C100,26.7,100,28.3,100,30z"/>
	</g>
</g>
</svg>
