<?xml version="1.0" encoding="utf-8"?>
<!-- Generator: Adobe Illustrator 19.2.1, SVG Export Plug-In . SVG Version: 6.00 Build 0)  -->
<svg version="1.1" id="Layer_1_xA0_Image_1_" xmlns="http://www.w3.org/2000/svg" xmlns:xlink="http://www.w3.org/1999/xlink"
	 x="0px" y="0px" viewBox="0 0 120 120" style="enable-background:new 0 0 120 120;" xml:space="preserve">
<style type="text/css">
	.st0{fill:#FFFFFF;}
</style>
<g>
	<g>
		<path d="M33,28c5.3,0,10.7,0,16,0c10.7,4.7,21.7,8.9,32.1,14.1c9.1,4.6,18.1,8.6,29,7c-2.2,4.6-4,9.2-9.7,9.9
			c-4.8,0.6-9.5,1.1-14.3,1.6c-0.2,0.5-0.3,1.1-0.5,1.6c4.7,1.8,9.5,3.6,14.6,5.6c-6.8,4.7-13.4,4-20.2,0.8
			c-0.2,0.7-0.3,1.4-0.5,2.1c3.7,2,7.4,4.1,11.4,6.3c-6.9,3.3-13,2.6-18.7-2.6c0.8,1.5,1.5,3,2.4,4.7c-7.1,2.8-11.5-0.8-15.9-5.5
			c0.7,1.6,1.3,3.2,2.6,6.3c-4.5-1.4-7.9-2.4-11.8-3.6c1.7,2.3,3.1,4.1,4.5,6.1c-5.3,2.2-9.3,0.5-13.1-2.6c1.1,2.1,2.1,4.2,3.2,6.4
			c-4.8,4.1-8.6-0.6-14.4-1.1c2.7,3.2,4.5,5.5,6.4,7.8c-8.6,2.2-13.4-0.4-15.5-8.5c-0.6-2.2-0.7-4.6-1.3-6.8
			C18.1,73,17.2,68.1,12,66c0-6,0-12,0-18c2.8-4.5,5-9.7,8.7-13.3C23.9,31.5,28.8,30.2,33,28z"/>
		<path class="st0" d="M12,66c5.2,2.1,6.1,7,7.4,11.5c0.6,2.2,0.7,4.6,1.3,6.8c2.2,8.1,6.9,10.7,15.5,8.5c-1.9-2.3-3.7-4.6-6.4-7.8
			c5.8,0.5,9.6,5.2,14.4,1.1C43.1,84,42,81.9,41,79.8c3.9,3.1,7.8,4.8,13.1,2.6c-1.4-1.9-2.8-3.8-4.5-6.1c3.9,1.2,7.3,2.2,11.8,3.6
			c-1.3-3-1.9-4.6-2.6-6.3c4.4,4.7,8.8,8.2,15.9,5.5c-0.9-1.7-1.6-3.2-2.4-4.7C78,79.6,84.1,80.3,91,77c-4-2.2-7.7-4.3-11.4-6.3
			c0.2-0.7,0.3-1.4,0.5-2.1c6.8,3.2,13.4,3.9,20.2-0.8c-5.2-2-9.9-3.8-14.6-5.6c0.2-0.5,0.3-1.1,0.5-1.6c4.8-0.5,9.5-1,14.3-1.6
			c5.7-0.7,7.4-5.3,9.7-9.9c-10.9,1.5-19.9-2.5-29-7C70.7,36.9,59.7,32.7,49,28c20.7,0,41.3,0,62,0c0,22.3,0,44.7,0,67
			c-33,0-66,0-99,0C12,85.3,12,75.7,12,66z"/>
		<path class="st0" d="M33,28c-4.2,2.2-9.1,3.5-12.3,6.7C17,38.3,14.8,43.5,12,48c0-6.7,0-13.3,0-20C19,28,26,28,33,28z"/>
	</g>
</g>
</svg>
