<?xml version="1.0" encoding="utf-8"?>
<!-- Generator: Adobe Illustrator 19.2.1, SVG Export Plug-In . SVG Version: 6.00 Build 0)  -->
<svg version="1.1" id="Layer_1_xA0_Image_1_" xmlns="http://www.w3.org/2000/svg" xmlns:xlink="http://www.w3.org/1999/xlink"
	 x="0px" y="0px" viewBox="0 0 120 120" style="enable-background:new 0 0 120 120;" xml:space="preserve">
<style type="text/css">
	.st0{fill:#FFFFFF;}
</style>
<g>
	<g>
		<path class="st0" d="M105,56c0,16.7,0,33.3,0,50c-30.3,0-60.7,0-91,0c0-16.3,0-32.7,0-49c1.2,3.4,1.7,7.2,3.7,10.1
			c1.7,2.4,4.9,4.7,7.8,5.1c3.2,0.5,8.3-6.2,9.3-10.1c1.1-4.4-1.9-5.9-4.7-8.1c-4.8-3.8-9.2-8.2-13.9-12.5c-0.7,2.2-1.5,4.4-2.2,6.5
			c0-9,0-18,0-27c30.3,0,60.7,0,91,0c0,7.7,0,15.3,0,23c-1.4-3.4-2.8-6.7-4.5-11.1c-2.6,8.6-9.2,12.5-14.8,17.4
			c-5.1,4.5-5.2,8-0.7,13.1c5.1,5.9,12.2,5.4,16.2-1.1C102.5,60.3,103.7,58.1,105,56z M55,57.3c-1.6,1.2-2.9,2.7-4.5,3.4
			c-3.7,1.5-8.3,1.8-11.2,4.1c-3,2.4-3.9,7.2-6.5,10.2c-4.3,4.9-5.1,10.9-1.6,16.5c4.3,6.7,10.8,7.4,17.9,6.7
			c1.7-0.2,3.8,0.3,5.2,1.2c6.3,4.1,12.8,6.3,20.4,5c9.9-1.7,20.6-14.5,19.6-24.6c-0.4-4.3-1.5-8.2-7.4-8.8
			c-5.1-0.5-9.3-3.6-11.5-8.5c-1.1-2.4-2.3-3-5-2.4C65,61.3,59.5,61.4,55,57.3z M79.7,22.2c-8.4,3.5-16.6,8-19.9,18.1
			c-2.3,7.1-0.4,11.9,5.4,14.7c4.9,2.3,15.4-2.4,15.3-7.1C80.4,39.4,80,31,79.7,22.2z M43.1,23.2c-6.9,4.4-11.9,17.1-9.3,25.5
			c1.2,3.9,2.7,7.4,7.9,7.5c5.5,0.1,9.5-1.8,11.3-6.3c0.5-1.3,0.8-3.1,0.3-4.2C50,38.1,46.5,30.6,43.1,23.2z"/>
		<path d="M105,56c-1.3,2.1-2.5,4.3-3.8,6.3c-4.1,6.5-11.1,6.9-16.2,1.1c-4.5-5.1-4.3-8.6,0.7-13.1c5.5-4.9,12.2-8.8,14.8-17.4
			c1.8,4.4,3.2,7.7,4.5,11.1C105,48,105,52,105,56z"/>
		<path d="M14,48c0.7-2.2,1.5-4.3,2.2-6.5c4.7,4.3,9.1,8.6,13.9,12.5c2.8,2.2,5.8,3.7,4.7,8.1c-0.9,3.9-6.1,10.6-9.3,10.1
			c-2.8-0.5-6.1-2.7-7.8-5.1c-2-2.8-2.6-6.7-3.7-10.1C14,54,14,51,14,48z"/>
		<path d="M55,57.3c4.5,4.1,10,4,15.4,2.8c2.7-0.6,3.8,0,5,2.4c2.2,4.9,6.4,8,11.5,8.5c6,0.5,7,4.4,7.4,8.8c1,10-9.7,22.9-19.6,24.6
			c-7.7,1.3-14.2-0.9-20.4-5c-1.4-0.9-3.5-1.4-5.2-1.2c-7.1,0.7-13.6,0-17.9-6.7C27.7,85.9,28.5,80,32.8,75c2.6-3,3.6-7.8,6.5-10.2
			c2.9-2.4,7.5-2.6,11.2-4.1C52.1,60,53.4,58.5,55,57.3z"/>
		<path d="M79.7,22.2c0.3,8.8,0.7,17.2,0.8,25.7c0.1,4.7-10.4,9.5-15.3,7.1c-5.8-2.8-7.7-7.5-5.4-14.7
			C63.1,30.2,71.3,25.7,79.7,22.2z"/>
		<path d="M43.1,23.2c3.4,7.4,6.9,14.9,10.2,22.5c0.5,1.2,0.2,2.9-0.3,4.2c-1.8,4.5-5.8,6.4-11.3,6.3c-5.2-0.1-6.7-3.6-7.9-7.5
			C31.2,40.4,36.2,27.7,43.1,23.2z"/>
	</g>
</g>
</svg>
