<?xml version="1.0" encoding="utf-8"?>
<!-- Generator: Adobe Illustrator 19.2.1, SVG Export Plug-In . SVG Version: 6.00 Build 0)  -->
<svg version="1.1" id="Layer_1_xA0_Image_1_" xmlns="http://www.w3.org/2000/svg" xmlns:xlink="http://www.w3.org/1999/xlink"
	 x="0px" y="0px" viewBox="0 0 120 120" style="enable-background:new 0 0 120 120;" xml:space="preserve">
<style type="text/css">
	.st0{fill:#FFFFFF;}
</style>
<g>
	<g>
		<path d="M57,105c-0.7,0-1.3,0-2,0c-1.4-0.3-2.8-0.8-4.2-1c-11.6-1.5-21.1-6.6-27.5-16.7c-7.8-12.2-8.4-24.8-1.4-37.6
			c3.5-6.3,10.8-9.6,17.7-8.4c5.4,1,10.5,8,9.8,12.6c-3.3,0-6.8-0.8-9.5,0.3c-2.4,0.9-4.3,3.8-5.6,6.2c-0.6,1.1,0.7,4.5,1.4,4.6
			c2.2,0.3,4.7-0.2,6.7-1c5.6-2.4,11.3-3.4,18.4-2.3c-3.2,2.9-8,3.2-6.5,8.2c4.4,1.2,7.2-1.2,9.9-4.1c5.6-5.7,10.8-11.8,17.1-16.6
			c7.7-6,19.4-7.2,23.7,4.8c0.1,0.4,0.7,0.7,1,1.1c0,1.3,0,2.7,0,4c-2.2,6.2-5.1,11.8-13.8,13c1.8-2.2,3.4-3.4,3.8-4.9
			c0.6-2.3,1.4-5.6,0.3-7.2c-2.1-3.1-5.4-0.8-6.6,1.2c-2.5,4.3-5.1,9-5.9,13.8c-1.9,12.3-5.7,23-18.5,27.7
			C62.7,103.7,59.8,104.3,57,105z"/>
		<path class="st0" d="M106,55c-0.3-0.3-0.9-0.6-1-1.1c-4.3-12-16-10.7-23.7-4.8c-6.3,4.8-11.5,11-17.1,16.6
			c-2.8,2.8-5.5,5.3-9.9,4.1c-1.5-5.1,3.4-5.3,6.5-8.2c-7.1-1.1-12.8-0.1-18.4,2.3c-2.1,0.9-4.5,1.3-6.7,1c-0.7-0.1-2-3.5-1.4-4.6
			c1.3-2.4,3.2-5.3,5.6-6.2c2.7-1.1,6.2-0.3,9.5-0.3c0.7-4.7-4.4-11.7-9.8-12.6c-6.9-1.2-14.3,2.1-17.7,8.4
			c-7,12.8-6.4,25.4,1.4,37.6c6.4,10.1,15.9,15.2,27.5,16.7c1.4,0.2,2.8,0.7,4.2,1c-13,0-25.9,0-39,0c0-27.9,0-55.8,0-83.9
			c30,0,60,0,90,0C106,32.4,106,43.7,106,55z M38.8,29.2c0.2,0.2,0.5,0.5,0.7,0.5C52,31,52.3,31.3,54.3,44.1
			c0.6,4.2,4.6,7.7,8.9,7.9c5.8,0.2,10.3-2.8,12.3-8.1c2.3-6.2,0.4-14-4.6-18C62.7,19.2,46,20.9,38.8,29.2z"/>
		<path class="st0" d="M57,105c2.8-0.7,5.7-1.3,8.4-2.3C78.2,97.9,82,87.3,83.9,75c0.8-4.8,3.4-9.5,5.9-13.8c1.2-2,4.5-4.3,6.6-1.2
			c1.1,1.6,0.3,4.9-0.3,7.2c-0.4,1.5-2.1,2.7-3.8,4.9c8.7-1.3,11.6-6.8,13.8-13c0,15.3,0,30.7,0,46C89.7,105,73.3,105,57,105z"/>
		<path d="M38.8,29.2c7.3-8.2,23.9-9.9,32.1-3.3c4.9,4,6.9,11.8,4.6,18c-2,5.3-6.5,8.3-12.3,8.1c-4.3-0.2-8.3-3.7-8.9-7.9
			C52.3,31.3,52,31,39.5,29.7C39.2,29.7,39,29.4,38.8,29.2z"/>
	</g>
</g>
</svg>
