<?xml version="1.0" encoding="utf-8"?>
<!-- Generator: Adobe Illustrator 19.2.1, SVG Export Plug-In . SVG Version: 6.00 Build 0)  -->
<svg version="1.1" id="Layer_1_xA0_Image_1_" xmlns="http://www.w3.org/2000/svg" xmlns:xlink="http://www.w3.org/1999/xlink"
	 x="0px" y="0px" viewBox="0 0 120 120" style="enable-background:new 0 0 120 120;" xml:space="preserve">
<style type="text/css">
	.st0{fill:#FFFFFF;}
</style>
<g>
	<g>
		<path d="M54,12c0.7,0,1.3,0,2,0c-2.1,4.5,0.2,8.2,3.5,10.3c4.1,2.6,8.9,4.4,13.6,5.7c5.7,1.5,8.8,4.7,8.7,10.7
			c0,1.8-0.9,3.8-0.5,5.4c0.5,1.8,2.1,3.4,3.2,5c1.2-1.5,2.9-2.9,3.5-4.6c0.6-1.6,0.1-3.6,0.1-5.5c0.7,0,1.4,0,2.1,0
			c0.2,4.1,1,8.3,0.3,12.3c-0.9,5-2.5,9.8-7.8,12.6c-3.8,2-4.6,6.8-2.1,9.4c3,3.2,6.3,1.5,8.1-1c2.6-3.6,4.9-7.8,6.1-12.1
			c1.2-4.1,0.8-8.6,1.2-13c0.4-0.1,0.9-0.2,1.3-0.3c1.8,5.4,3.6,10.8,5.4,16.2c0,2,0,4,0,6c-0.5,1.5-0.9,3.1-1.4,4.6
			c-1.8,5.8-2.5,12.2-5.5,17.3c-8.1,14.2-21.3,20.6-37.4,20.2c-16.2-0.4-29.4-6.8-37.2-21.8c-2-3.7-3.7-7.6-5.5-11.4c0-4,0-8,0-12
			c1.3-2.4,2.4-5,4.1-7.1c3.9-5.2,7.9-10.2,1.6-17.5c9,3.4,13.6,13,10.7,20.1c-1.6,4-0.1,8.3,4,9.1c2.6,0.5,6.1-0.2,8.2-1.8
			c3.3-2.4,3.7-9.8,0.9-13.4c-1.2-1.6-4-2.1-6.1-3c-6.7-8.7-3.1-25.3,6.3-29.5c0,6.6,2.2,12.4,6.4,17.4c0.8,0.9,1.3,2.7,0.9,3.8
			c-1.8,4.9-1.5,8.7,3.6,11.3c3.4,1.8,10.3,1.4,12.8-1.8c1.5-2,2.7-5.3,2.1-7.5c-0.5-1.7-3.9-2.7-6.1-3.8c-1.7-0.9-4-1.1-5.3-2.4
			C52.1,32,50.7,22.5,54,12z"/>
		<path class="st0" d="M54,12c-3.3,10.5-1.9,20,6.1,28c1.3,1.3,3.6,1.5,5.3,2.4c2.2,1.1,5.6,2.1,6.1,3.8c0.6,2.2-0.6,5.5-2.1,7.5
			c-2.5,3.2-9.3,3.6-12.8,1.8c-5.1-2.6-5.5-6.5-3.6-11.3c0.4-1-0.2-2.8-0.9-3.8c-4.2-5.1-6.4-10.8-6.4-17.4
			c-9.3,4.2-13,20.8-6.3,29.5c2.1,1,4.8,1.4,6.1,3c2.8,3.6,2.4,10.9-0.9,13.4c-2.1,1.5-5.6,2.3-8.2,1.8c-4.2-0.8-5.6-5.1-4-9.1
			c2.8-7.1-1.7-16.7-10.7-20.1c6.2,7.3,2.3,12.3-1.6,17.5C18.4,61,17.3,63.6,16,66c0-17.9,0-35.8,0-54C28.7,12,41.3,12,54,12z"/>
		<path class="st0" d="M103,63c-1.8-5.4-3.6-10.8-5.4-16.2c-0.4,0.1-0.9,0.2-1.3,0.3c-0.3,4.3,0,8.9-1.2,13
			c-1.2,4.3-3.5,8.5-6.1,12.1c-1.8,2.5-5.1,4.1-8.1,1c-2.5-2.6-1.7-7.3,2.1-9.4c5.2-2.8,6.9-7.6,7.8-12.6c0.7-3.9-0.1-8.2-0.3-12.3
			c-0.7,0-1.4,0-2.1,0c0,1.8,0.5,3.9-0.1,5.5c-0.7,1.7-2.3,3.1-3.5,4.6c-1.1-1.7-2.7-3.2-3.2-5c-0.5-1.6,0.4-3.6,0.5-5.4
			c0.1-6-3-9.1-8.7-10.7c-4.7-1.3-9.5-3.1-13.6-5.7c-3.4-2.1-5.6-5.8-3.5-10.3c15.7,0,31.3,0,47,0C103,29,103,46,103,63z"/>
		<path class="st0" d="M16,78c1.8,3.8,3.6,7.6,5.5,11.4c7.9,15,21.1,21.4,37.2,21.8c16,0.4,29.3-6,37.4-20.2
			c2.9-5.1,3.7-11.5,5.5-17.3c0.5-1.5,0.9-3.1,1.4-4.6c0,14.3,0,28.7,0,43c-29,0-58,0-87,0C16,100.7,16,89.3,16,78z"/>
	</g>
</g>
</svg>
