<?xml version="1.0" encoding="utf-8"?>
<!-- Generator: Adobe Illustrator 19.2.1, SVG Export Plug-In . SVG Version: 6.00 Build 0)  -->
<svg version="1.1" id="Layer_1_xA0_Image_1_" xmlns="http://www.w3.org/2000/svg" xmlns:xlink="http://www.w3.org/1999/xlink"
	 x="0px" y="0px" viewBox="0 0 120 120" style="enable-background:new 0 0 120 120;" xml:space="preserve">
<style type="text/css">
	.st0{fill:#FFFFFF;}
</style>
<g>
	<g>
		<path d="M53,16c6.7,0,13.3,0,20,0c1.7,0.5,3.5,1.3,5.2,1.3c4.5,0.1,8.1,0.9,9.1,6.3c2.6,13.2,5.4,26.3,8.1,39.5
			c1.7,8.5,0.8,16.2-5.4,23.1C83,94,76.4,102.4,69.5,110.6c-0.5-0.3-1-0.6-1.5-0.9c-0.5-15-1.2-30.1-1.5-45.1c0-1.1,1.6-2.7,2.8-3.3
			c4.5-2,9.1-3.7,14.1-5.7c-0.9-3.2-1.7-5.9-2.5-8.8c-13.8,4-26.9,3.8-39.9,0.2c-2.9,7.3-2.8,7.4,3.6,10.3c2.5,1.2,5,2.6,7.7,3.4
			c3.1,0.9,3.7,2.8,3.4,5.6c-0.4,3.8-0.5,7.6-0.6,11.4c-0.3,10.7-0.5,21.4-0.8,32.1c-0.6,0.3-1.1,0.6-1.7,0.8
			c-6.7-7.9-13.5-15.7-20.2-23.6c-5.6-6.5-8-13.7-5.9-22.5c3.2-13.2,5.7-26.5,8.4-39.8c0.8-4,2.9-5.9,7.1-6.3
			C45.8,18,49.4,16.8,53,16z"/>
		<path class="st0" d="M53,16c-3.6,0.8-7.2,2-10.9,2.4c-4.1,0.4-6.3,2.3-7.1,6.3c-2.7,13.3-5.3,26.6-8.4,39.8
			c-2.1,8.8,0.3,16,5.9,22.5c6.7,7.9,13.5,15.7,20.2,23.6c0.6-0.3,1.1-0.6,1.7-0.8c0.3-10.7,0.5-21.4,0.8-32.1
			c0.1-3.8,0.2-7.6,0.6-11.4c0.3-2.9-0.4-4.7-3.4-5.6c-2.7-0.8-5.1-2.3-7.7-3.4c-6.4-3-6.5-3.1-3.6-10.3c13,3.6,26.1,3.8,39.9-0.2
			c0.8,2.9,1.6,5.6,2.5,8.8c-4.9,2-9.6,3.7-14.1,5.7c-1.2,0.6-2.8,2.2-2.8,3.3c0.4,15,1,30.1,1.5,45.1c0.5,0.3,1,0.6,1.5,0.9
			C76.4,102.4,83,94,90.1,86.1c6.2-6.9,7.1-14.6,5.4-23.1c-2.7-13.2-5.5-26.3-8.1-39.5c-1-5.3-4.6-6.2-9.1-6.3
			c-1.7,0-3.5-0.9-5.2-1.3c8,0,16,0,24,0c0,32,0,64,0,96c-24,0-48,0-72,0c0-32,0-64,0-96C34.3,16,43.7,16,53,16z"/>
	</g>
</g>
</svg>
