<?xml version="1.0" encoding="utf-8"?>
<!-- Generator: Adobe Illustrator 19.2.1, SVG Export Plug-In . SVG Version: 6.00 Build 0)  -->
<svg version="1.1" id="Layer_1" xmlns="http://www.w3.org/2000/svg" xmlns:xlink="http://www.w3.org/1999/xlink" x="0px" y="0px"
	 viewBox="0 0 50 50" style="enable-background:new 0 0 50 50;" xml:space="preserve">
<style type="text/css">
	.st0{fill:#999999;}
</style>
<path d="M25,16c-5,0-9,4-9,9s4,9,9,9s9-4,9-9S30,16,25,16z M25,32c-3.9,0-7-3.1-7-7s3.1-7,7-7s7,3.1,7,7S28.9,32,25,32z"/>
<path d="M43.9,27.6v-5.4l-4.6-1.5c-0.3-1-0.7-2-1.2-2.9l2.2-4.4l-3.8-3.8l-4.4,2.2c-0.9-0.5-1.9-0.9-2.9-1.2L27.7,6h-5.4l-1.6,4.7
	c-1,0.3-2,0.7-2.9,1.2l-4.4-2.2l-3.8,3.8l2.2,4.4c-0.5,0.9-0.9,1.9-1.2,2.9L6,22.3v5.4l4.7,1.6c0.3,1,0.7,2,1.2,2.9l-2.2,4.4
	l3.8,3.8l4.4-2.2c0.9,0.5,1.9,0.9,2.9,1.2l1.5,4.6h5.4l1.5-4.8c1-0.3,2-0.7,2.9-1.2l4.4,2.2l3.8-3.8L38.1,32
	c0.5-0.9,0.9-1.9,1.2-2.9L43.9,27.6z M37.9,36.1l-1.8,1.8l-4-2l-0.5,0.3c-1.1,0.6-2.2,1.1-3.4,1.4l-0.5,0.1L26.3,42h-2.6l-1.4-4.3
	l-0.5-0.1c-1.2-0.3-2.3-0.8-3.4-1.4l-0.5-0.3l-4,2l-1.8-1.8l2-4l-0.3-0.5c-0.6-1.1-1.1-2.2-1.4-3.4l-0.1-0.5L8,26.3v-2.6l4.3-1.4
	l0.1-0.5c0.3-1.2,0.8-2.4,1.4-3.4l0.3-0.5l-2-4l1.8-1.8l4,2l0.5-0.3c1.1-0.6,2.2-1.1,3.4-1.4l0.5-0.1L23.7,8h2.6l1.4,4.3l0.5,0.1
	c1.2,0.3,2.3,0.8,3.4,1.4l0.5,0.3l4-2l1.8,1.8l-2,4l0.3,0.5c0.6,1.1,1.1,2.2,1.4,3.4l0.1,0.5l4.3,1.4v2.6l-4.3,1.4l-0.1,0.5
	c-0.3,1.2-0.8,2.4-1.4,3.4l-0.3,0.5L37.9,36.1z"/>
<path class="st0" d="M37.6,28.2l0.1-0.5l4.3-1.4v-2.6l-4.3-1.4l-0.1-0.5c-0.3-1.2-0.8-2.3-1.4-3.4l-0.3-0.5l2-4l-1.8-1.8l-4,2
	l-0.5-0.3c-1.1-0.6-2.2-1.1-3.4-1.4l-0.5-0.1L26.3,8h-2.6l-1.4,4.3l-0.5,0.1c-1.2,0.3-2.3,0.8-3.4,1.4l-0.5,0.3l-4-2l-1.8,1.8l2,4
	l-0.3,0.5c-0.6,1-1.1,2.2-1.4,3.4l-0.1,0.5L8,23.7v2.6l4.3,1.4l0.1,0.5c0.3,1.2,0.8,2.3,1.4,3.4l0.3,0.5l-2,4l1.8,1.8l4-2l0.5,0.3
	c1.1,0.6,2.2,1.1,3.4,1.4l0.5,0.1l1.4,4.3h2.6l1.4-4.3l0.5-0.1c1.2-0.3,2.3-0.8,3.4-1.4l0.5-0.3l4,2l1.8-1.8l-2-4l0.3-0.5
	C36.8,30.6,37.3,29.4,37.6,28.2z M25,34c-5,0-9-4-9-9s4-9,9-9s9,4,9,9S30,34,25,34z"/>
</svg>
