<?xml version="1.0" encoding="utf-8"?>
<!-- Generator: Adobe Illustrator 19.2.1, SVG Export Plug-In . SVG Version: 6.00 Build 0)  -->
<svg version="1.1" id="Layer_1" xmlns="http://www.w3.org/2000/svg" xmlns:xlink="http://www.w3.org/1999/xlink" x="0px" y="0px"
	 viewBox="0 0 117.3 34" style="enable-background:new 0 0 117.3 34;" xml:space="preserve">
<style type="text/css">
	.st0{fill:#FFFFFF;stroke:#000000;stroke-width:2;stroke-miterlimit:10;}
	.st1{stroke:#000000;stroke-width:0.25;stroke-miterlimit:10;}
	.st2{stroke:#000000;stroke-width:0.5;stroke-miterlimit:10;}
	.st3{fill:none;stroke:#000000;stroke-width:2;stroke-miterlimit:10;}
</style>
<path class="st0" d="M68.3,31c0,1.1-0.9,2-2.2,2H3.5c-1.3,0-2.3-0.9-2.3-2V3c0-1.1,1-2,2.3-2h62.5c1.3,0,2.2,0.9,2.2,2V31z"/>
<path class="st0" d="M114.2,32.8H86.9c-1.1,0-2-0.9-2-2v-28c0-1.1,0.9-2,2-2h27.3c1.1,0,2,0.9,2,2v28
	C116.2,31.9,115.3,32.8,114.2,32.8z"/>
<g>
	<path class="st1" d="M10.9,21.6c0.8,0.5,2,0.9,3.3,0.9c1.9,0,3-1,3-2.4c0-1.3-0.8-2.1-2.7-2.8c-2.3-0.8-3.7-2-3.7-4
		c0-2.2,1.8-3.8,4.6-3.8c1.4,0,2.5,0.3,3.1,0.7l-0.5,1.5c-0.5-0.3-1.4-0.7-2.7-0.7c-1.9,0-2.7,1.2-2.7,2.1c0,1.3,0.9,2,2.8,2.7
		c2.4,0.9,3.6,2.1,3.6,4.2c0,2.2-1.6,4.1-5,4.1c-1.4,0-2.9-0.4-3.6-0.9L10.9,21.6z"/>
	<path class="st1" d="M23.3,9.7v5.9h6.8V9.7H32v14.2h-1.8v-6.6h-6.8v6.6h-1.8V9.7H23.3z"/>
	<path class="st1" d="M37,9.7v14.2h-1.8V9.7H37z"/>
	<path class="st1" d="M40.2,9.7h7.6v1.5H42V16h5.4v1.5H42v6.4h-1.8V9.7z"/>
	<path class="st1" d="M53.1,11.3h-4.3V9.7h10.5v1.6h-4.3v12.6h-1.8V11.3z"/>
</g>
<g>
	<path class="st2" d="M97.1,9.9c0.9-0.1,2-0.3,3.5-0.3c1.8,0,3.1,0.4,4,1.2c0.8,0.7,1.2,1.7,1.2,3c0,1.3-0.4,2.3-1.1,3
		c-1,1-2.5,1.6-4.3,1.6c-0.5,0-1.1,0-1.5-0.1v5.7h-1.8V9.9z M98.9,16.8c0.4,0.1,0.9,0.1,1.5,0.1c2.2,0,3.5-1.1,3.5-3
		c0-1.9-1.3-2.8-3.3-2.8c-0.8,0-1.4,0.1-1.7,0.1V16.8z"/>
</g>
<line class="st3" x1="76.3" y1="12" x2="76.3" y2="21.5"/>
<line class="st3" x1="71.4" y1="16.8" x2="81.2" y2="16.8"/>
</svg>
