<?xml version="1.0" encoding="utf-8"?>
<!-- Generator: Adobe Illustrator 19.2.1, SVG Export Plug-In . SVG Version: 6.00 Build 0)  -->
<svg version="1.1" id="Layer_1" xmlns="http://www.w3.org/2000/svg" xmlns:xlink="http://www.w3.org/1999/xlink" x="0px" y="0px"
	 viewBox="0 0 223.7 210.3" style="enable-background:new 0 0 223.7 210.3;" xml:space="preserve">
<style type="text/css">
	.st0{fill:#FFFFFF;}
</style>
<g>
	<g>
		<path d="M224.7,13.3c0,62.3,0,124.7,0,187c-2,5.3-5.7,9-11,11c-67.7,0-135.3,0-203,0c-5.3-2-9-5.7-11-11c0-62.7,0-125.3,0-188
			C2.8,3.2,9.3,0.2,18.8,0.2c62.4,0.3,124.8,0.1,187.1,0.1C217.6,0.3,220.4,2.3,224.7,13.3z M84.3,98.8c0,14.8,0,29,0,43.1
			c18.8,0,37.2,0,55.8,0c0-14.5,0-28.7,0-43.1C121.4,98.8,103,98.8,84.3,98.8z M13.9,142c18.8,0,37.2,0,55.7,0c0-14.5,0-28.7,0-43.1
			c-18.8,0-37.1,0-55.7,0C13.9,113.3,13.9,127.4,13.9,142z M154.8,98.8c0,14.8,0,29,0,43c18.8,0,37.2,0,55.5,0c0-14.6,0-28.8,0-43
			C191.6,98.8,173.3,98.8,154.8,98.8z M84.2,42.7c0,14.1,0,27.9,0,41.8c18.8,0,37.4,0,56,0c0-14.1,0-27.8,0-41.8
			C121.5,42.7,103.1,42.7,84.2,42.7z M14,42.7c0,14.3,0,28,0,41.9c18.7,0,37.1,0,55.7,0c0-14.1,0-27.8,0-41.9
			C51,42.7,32.6,42.7,14,42.7z M154.8,42.7c0,14.1,0,28,0,41.8c18.8,0,37.2,0,55.6,0c0-14.1,0-27.9,0-41.8
			C191.7,42.7,173.3,42.7,154.8,42.7z M140.2,155.4c-18.9,0-37.3,0-56.1,0c0,14,0,27.7,0,41.6c18.8,0,37.3,0,56.1,0
			C140.2,183.1,140.2,169.5,140.2,155.4z M14.1,155.3c0,14.3,0,28,0,41.6c18.8,0,37.2,0,55.5,0c0-14.1,0-27.8,0-41.6
			C50.9,155.3,32.6,155.3,14.1,155.3z M154.8,155.3c0,14.3,0,28,0,41.6c18.8,0,37.2,0,55.5,0c0-14.1,0-27.8,0-41.6
			C191.6,155.3,173.4,155.3,154.8,155.3z"/>
		<path class="st0" d="M224.7,13.3c-4.2-11-7.1-13-18.7-13c-62.4,0-124.8,0.1-187.1-0.1c-9.5,0-16,3-19.1,12.1c0-8.7,0-17.3,0-26
			c75,0,150,0,225,0C224.7-4.7,224.7,4.3,224.7,13.3z"/>
		<path class="st0" d="M-0.3,200.3c2,5.3,5.7,9,11,11c-3.7,0-7.3,0-11,0C-0.3,207.7-0.3,204-0.3,200.3z"/>
		<path class="st0" d="M213.7,211.3c5.3-2,9-5.7,11-11c0,3.7,0,7.3,0,11C221,211.3,217.3,211.3,213.7,211.3z"/>
		<path class="st0" d="M84.3,98.8c18.7,0,37.1,0,55.8,0c0,14.4,0,28.6,0,43.1c-18.6,0-37,0-55.8,0C84.3,127.8,84.3,113.6,84.3,98.8z
			"/>
		<path class="st0" d="M13.9,142c0-14.6,0-28.7,0-43.1c18.6,0,37,0,55.7,0c0,14.4,0,28.6,0,43.1C51.1,142,32.7,142,13.9,142z"/>
		<path class="st0" d="M154.8,98.8c18.5,0,36.8,0,55.5,0c0,14.2,0,28.5,0,43c-18.2,0-36.6,0-55.5,0
			C154.8,127.8,154.8,113.6,154.8,98.8z"/>
		<path class="st0" d="M84.2,42.7c18.9,0,37.3,0,56,0c0,14,0,27.7,0,41.8c-18.7,0-37.2,0-56,0C84.2,70.6,84.2,56.9,84.2,42.7z"/>
		<path class="st0" d="M14,42.7c18.6,0,37,0,55.7,0c0,14,0,27.8,0,41.9c-18.6,0-37,0-55.7,0C14,70.7,14,57,14,42.7z"/>
		<path class="st0" d="M154.8,42.7c18.6,0,37,0,55.6,0c0,14,0,27.7,0,41.8c-18.4,0-36.8,0-55.6,0C154.8,70.7,154.8,56.8,154.8,42.7z
			"/>
		<path class="st0" d="M140.2,155.4c0,14.1,0,27.7,0,41.6c-18.8,0-37.3,0-56.1,0c0-13.9,0-27.6,0-41.6
			C102.9,155.4,121.3,155.4,140.2,155.4z"/>
		<path class="st0" d="M14.1,155.3c18.6,0,36.8,0,55.5,0c0,13.8,0,27.6,0,41.6c-18.3,0-36.7,0-55.5,0
			C14.1,183.4,14.1,169.6,14.1,155.3z"/>
		<path class="st0" d="M154.8,155.3c18.6,0,36.9,0,55.5,0c0,13.8,0,27.5,0,41.6c-18.3,0-36.7,0-55.5,0
			C154.8,183.3,154.8,169.6,154.8,155.3z"/>
	</g>
</g>
</svg>
